# Blender 3.4.1
# www.blender.org
mtllib untitled.mtl
o polygon0
v -0.069092 0.475098 0.165527
v -0.095459 0.499512 0.159180
v -0.060059 0.355469 0.129395
v -0.083008 0.340088 0.110107
v 0.060059 0.355469 0.129395
v 0.083008 0.340088 0.110107
v 0.069092 0.475098 0.165527
v 0.095459 0.499512 0.159180
v 0.000000 0.497314 0.172607
v 0.000000 0.534912 0.170410
v -0.069092 0.475098 0.165527
v -0.095459 0.499512 0.159180
v 0.000000 0.534912 0.170410
v 0.000000 0.497314 0.172607
v -0.095459 0.499512 0.159180
v -0.069092 0.475098 0.165527
v -0.083008 0.340088 0.110107
v -0.060059 0.355469 0.129395
v 0.083008 0.340088 0.110107
v 0.060059 0.355469 0.129395
v 0.095459 0.499512 0.159180
v 0.069092 0.475098 0.165527
v 0.000000 0.534912 0.170410
v 0.000000 0.497314 0.172607
v 0.225098 0.320068 0.203125
v -0.225098 0.320068 0.203125
v 0.197754 0.325928 0.430908
v -0.197754 0.325928 0.430908
v 0.393799 0.062500 0.807373
v -0.393799 0.062500 0.807373
v -0.268555 0.319580 0.202148
v 0.000000 0.422119 0.250000
v 0.000000 0.325928 0.431152
v 0.268555 0.319580 0.202148
v 0.393799 0.349121 -0.137207
v 0.393799 0.487305 -0.365723
v 0.159668 0.442383 -0.367187
v 0.393799 0.523926 -0.768799
v -0.393799 0.320068 0.203125
v -0.393799 0.375000 0.445313
v -0.197754 0.325928 0.430908
v -0.393799 0.062500 0.807373
v 0.393799 0.062500 0.807373
v 0.393799 0.375000 0.445313
v 0.197754 0.325928 0.430908
v 0.393799 0.320068 0.203125
v -0.393799 0.523926 -0.768799
v -0.393799 0.487305 -0.365723
v -0.159668 0.442383 -0.367187
v -0.393799 0.349121 -0.137207
v 0.268555 0.319580 0.202148
v 0.000000 0.422119 0.250000
v 0.000000 0.325928 0.431152
v -0.268555 0.319580 0.202148
v -0.174316 0.062500 -0.506348
v 0.174316 0.062500 -0.506348
v 0.215332 0.062500 -0.281250
v -0.215332 0.062500 -0.281250
v -0.196289 0.281250 -0.562500
v 0.196289 0.281250 -0.562500
v 0.174316 0.062500 -0.506348
v -0.174316 0.062500 -0.506348
v -0.393799 0.412109 -0.731689
v -0.393799 0.062500 -0.281250
v -0.393799 0.349121 -0.137207
v -0.393799 0.487305 -0.365723
v -0.393799 0.320068 0.203125
v -0.225098 0.320068 0.203125
v -0.225098 0.349121 -0.137207
v -0.393799 0.349121 -0.137207
v 0.225098 0.320068 0.203125
v 0.393799 0.320068 0.203125
v 0.393799 0.349121 -0.137207
v 0.225098 0.349121 -0.137207
v 0.159668 0.442383 -0.367187
v 0.393799 0.523926 -0.768799
v -0.393799 0.523926 -0.768799
v -0.159668 0.442383 -0.367187
v 0.393799 0.062500 -0.281250
v 0.393799 0.349121 -0.137207
v 0.393799 0.320068 0.203125
v 0.393799 0.062500 0.807373
v 0.393799 0.412109 -0.731689
v 0.393799 0.487305 -0.365723
v 0.393799 0.349121 -0.137207
v 0.393799 0.062500 -0.281250
v -0.393799 0.062500 -0.281250
v 0.393799 0.062500 -0.281250
v 0.393799 0.062500 0.807373
v -0.393799 0.062500 0.807373
v -0.393799 0.062500 -0.281250
v -0.393799 0.062500 0.807373
v -0.393799 0.320068 0.203125
v -0.393799 0.349121 -0.137207
v -0.393799 0.412109 -0.731689
v 0.393799 0.412109 -0.731689
v 0.393799 0.062500 -0.281250
v -0.393799 0.062500 -0.281250
v -0.393799 0.523926 -0.768799
v 0.393799 0.523926 -0.768799
v 0.393799 0.412109 -0.731689
v -0.393799 0.412109 -0.731689
v 0.036621 0.439209 0.140381
v 0.000000 0.365967 0.117676
v -0.036621 0.439209 0.140381
v -0.289307 0.406250 -0.764893
v -0.127686 0.210205 -0.312744
v -0.150635 0.364502 -0.791260
v -0.286133 0.386719 -0.809326
v -0.215332 0.251465 -0.375977
v -0.386963 0.270264 -0.796387
v -0.286133 0.386719 -0.809326
v -0.386963 0.270264 -0.796387
v -0.423584 0.425781 -0.774170
v 0.423584 0.425781 -0.774170
v 0.286133 0.386719 -0.809326
v 0.215332 0.251465 -0.375977
v -0.252197 0.249512 -0.773926
v -0.127686 0.210205 -0.312744
v -0.289307 0.406250 -0.764893
v -0.150635 0.364502 -0.791260
v -0.127686 0.210205 -0.312744
v -0.252197 0.249512 -0.773926
v 0.386963 0.270264 -0.796387
v 0.423584 0.425781 -0.774170
v 0.215332 0.251465 -0.375977
v -0.150635 0.364502 -0.791260
v -0.252197 0.249512 -0.773926
v -0.289307 0.406250 -0.764893
v -0.423584 0.425781 -0.774170
v -0.215332 0.251465 -0.375977
v -0.286133 0.386719 -0.809326
v -0.386963 0.270264 -0.796387
v -0.215332 0.251465 -0.375977
v -0.423584 0.425781 -0.774170
v 0.150635 0.364502 -0.791260
v 0.289307 0.406250 -0.764893
v 0.252197 0.249512 -0.773926
v 0.150635 0.364502 -0.791260
v 0.252197 0.249512 -0.773926
v 0.127686 0.210205 -0.312744
v 0.252197 0.249512 -0.773926
v 0.289307 0.406250 -0.764893
v 0.127686 0.210205 -0.312744
v 0.289307 0.406250 -0.764893
v 0.150635 0.364502 -0.791260
v 0.127686 0.210205 -0.312744
v 0.286133 0.386719 -0.809326
v 0.423584 0.425781 -0.774170
v 0.386963 0.270264 -0.796387
v 0.286133 0.386719 -0.809326
v 0.386963 0.270264 -0.796387
v 0.215332 0.251465 -0.375977
v -0.393799 0.412109 -0.731689
v -0.393799 0.487305 -0.365723
v -0.393799 0.523926 -0.768799
v 0.393799 0.062500 0.807373
v 0.393799 0.320068 0.203125
v 0.393799 0.375000 0.445313
v 0.159668 0.442383 -0.367187
v 0.000000 0.125000 0.000000
v 0.225098 0.349121 -0.137207
v -0.225098 0.349121 -0.137207
v 0.000000 0.125000 0.000000
v -0.159668 0.442383 -0.367187
v -0.225098 0.320068 0.203125
v 0.225098 0.320068 0.203125
v 0.000000 0.125000 0.000000
v 0.000000 0.125000 0.000000
v 0.225098 0.320068 0.203125
v 0.225098 0.349121 -0.137207
v -0.159668 0.442383 -0.367187
v 0.000000 0.125000 0.000000
v 0.159668 0.442383 -0.367187
v -0.393799 0.320068 0.203125
v -0.197754 0.325928 0.430908
v -0.225098 0.320068 0.203125
v -0.393799 0.349121 -0.137207
v -0.225098 0.349121 -0.137207
v -0.159668 0.442383 -0.367187
v -0.225098 0.320068 0.203125
v 0.000000 0.125000 0.000000
v -0.225098 0.349121 -0.137207
v 0.225098 0.320068 0.203125
v 0.197754 0.325928 0.430908
v 0.393799 0.320068 0.203125
v 0.159668 0.442383 -0.367187
v 0.225098 0.349121 -0.137207
v 0.393799 0.349121 -0.137207
v -0.174316 0.062500 -0.506348
v -0.215332 0.062500 -0.281250
v -0.196289 0.281250 -0.562500
v 0.393799 0.412109 -0.731689
v 0.393799 0.523926 -0.768799
v 0.393799 0.487305 -0.365723
v -0.393799 0.320068 0.203125
v -0.393799 0.062500 0.807373
v -0.393799 0.375000 0.445313
v 0.215332 0.062500 -0.281250
v 0.174316 0.062500 -0.506348
v 0.196289 0.281250 -0.562500
v 0.015869 0.419434 0.134766
v -0.015869 0.419434 0.134766
v 0.000000 0.195801 0.539795
v 0.036621 0.439209 0.140381
v -0.036621 0.439209 0.140381
v 0.000000 0.365967 0.117676
vn -0.4676 -0.2877 0.8358
vn -0.4938 -0.2908 0.8195
vn -0.0000 -0.7818 0.6235
vn 0.4976 -0.2850 0.8193
vn 0.4714 -0.2929 0.8319
vn 0.1360 0.1091 0.9847
vn 0.1377 0.0578 0.9888
vn -0.1202 0.0579 0.9911
vn -0.1504 0.0934 0.9842
vn 0.1377 -0.0578 -0.9888
vn 0.1360 -0.1091 -0.9847
vn 0.4714 0.2929 -0.8319
vn 0.4976 0.2850 -0.8193
vn -0.0000 0.7818 -0.6235
vn -0.4938 0.2908 -0.8195
vn -0.4676 0.2877 -0.8358
vn -0.1504 -0.0934 -0.9842
vn -0.1202 -0.0579 -0.9911
vn -0.0000 0.9997 -0.0257
vn -0.0000 0.8193 0.5733
vn 0.3879 -0.8141 -0.4323
vn -0.3879 -0.8141 -0.4323
vn -0.1651 0.8440 0.5103
vn -0.1882 0.9781 0.0889
vn 0.2222 0.9509 -0.2157
vn 0.2311 0.7365 0.6357
vn -0.2311 0.7365 0.6357
vn -0.2222 0.9509 -0.2157
vn 0.1882 0.9781 0.0889
vn 0.1651 0.8440 0.5103
vn 0.3879 0.8141 0.4323
vn -0.3879 0.8141 0.4323
vn -0.0000 -1.0000 -0.0000
vn -0.0000 -0.2486 -0.9686
vn -1.0000 -0.0000 -0.0000
vn -0.0000 0.9964 0.0851
vn -0.0000 0.9800 0.1990
vn 1.0000 -0.0000 -0.0000
vn -0.0000 -0.7900 -0.6131
vn -0.0000 -0.3150 -0.9491
vn -0.0000 0.2961 -0.9552
vn 0.3248 0.9046 0.2761
vn 0.7001 -0.6411 -0.3145
vn -0.2239 0.0860 -0.9708
vn -0.3207 0.9178 0.2341
vn -0.9429 -0.2367 0.2344
vn 0.7074 -0.6621 -0.2474
vn 0.8975 -0.2620 0.3547
vn -0.1829 0.0134 -0.9830
vn 0.3207 0.9178 0.2341
vn -0.8975 -0.2620 0.3547
vn 0.1829 0.0134 -0.9830
vn -0.7074 -0.6621 -0.2474
vn 0.9429 -0.2367 0.2344
vn -0.3248 0.9046 0.2761
vn 0.2239 0.0860 -0.9708
vn -0.7001 -0.6411 -0.3145
vn -0.4820 0.7556 0.4435
vn 0.4820 0.7556 0.4435
vn -0.0000 0.7213 -0.6927
vn -0.6850 0.7259 0.0620
vn -0.0000 0.7566 0.6539
vn -0.0000 0.9267 0.3758
vn 0.6850 0.7259 0.0620
vn -0.9736 -0.1433 -0.1774
vn 0.9736 -0.1433 -0.1774
vn -0.0000 0.8754 0.4834
vn -0.0000 -0.2961 0.9552
vt 0.448242 -0.458984
vt 0.482422 -0.458984
vt 0.448242 -0.541016
vt 0.482422 -0.541016
vt 0.448242 -0.541016
vt 0.482422 -0.541016
vt 0.448242 -0.458984
vt 0.482422 -0.458984
vt 0.448242 -0.458984
vt 0.482422 -0.458984
vt 0.448242 -0.458984
vt 0.482422 -0.458984
vt 0.482422 -0.458984
vt 0.448242 -0.458984
vt 0.482422 -0.458984
vt 0.448242 -0.458984
vt 0.482422 -0.541016
vt 0.448242 -0.541016
vt 0.482422 -0.541016
vt 0.448242 -0.541016
vt 0.482422 -0.458984
vt 0.448242 -0.458984
vt 0.482422 -0.458984
vt 0.448242 -0.458984
vt 0.148438 0.143555
vt -0.149414 0.143555
vt 0.130859 0.002930
vt -0.130859 0.002930
vt 0.260742 -0.297852
vt -0.260742 -0.297852
vt -0.177734 0.231445
vt 0.000000 0.231445
vt 0.000000 0.164062
vt 0.177734 0.231445
vt 0.260742 0.875000
vt 0.260742 0.999023
vt 0.105469 1.000000
vt 0.260742 1.155273
vt -0.260742 0.143555
vt -0.260742 0.001953
vt -0.130859 0.002930
vt -0.260742 -0.297852
vt 0.260742 -0.297852
vt 0.260742 0.001953
vt 0.130859 0.002930
vt 0.260742 0.143555
vt -0.260742 1.155273
vt -0.260742 0.999023
vt -0.105469 1.000000
vt -0.260742 0.875000
vt 0.177734 0.231445
vt 0.000000 0.231445
vt 0.000000 0.164062
vt -0.177734 0.231445
vt 0.398438 -0.202148
vt 0.600586 -0.202148
vt 0.622070 -0.047852
vt 0.376953 -0.047852
vt 0.563477 -1.255859
vt 0.563477 -0.743164
vt 0.341797 -0.772461
vt 0.341797 -1.227539
vt 0.094727 0.484375
vt -0.125000 0.470703
vt -0.065430 0.608398
vt 0.034180 0.607422
vt -0.147461 0.473633
vt -0.083984 0.473633
vt -0.083984 0.401367
vt -0.147461 0.401367
vt 0.083984 0.473633
vt 0.147461 0.473633
vt 0.147461 0.401367
vt 0.083984 0.401367
vt 0.105469 1.125000
vt 0.260742 0.768555
vt -0.260742 0.768555
vt -0.105469 1.125000
vt 0.055664 0.471680
vt 0.071289 0.606445
vt -0.013672 0.605469
vt -0.100586 0.504883
vt 0.094727 0.484375
vt 0.034180 0.607422
vt -0.065430 0.608398
vt -0.125000 0.470703
vt 0.272461 0.184570
vt 0.726562 0.184570
vt 0.726562 -0.310547
vt 0.272461 -0.310547
vt 0.055664 0.471680
vt -0.100586 0.504883
vt -0.013672 0.605469
vt 0.071289 0.606445
vt -0.260742 -0.374023
vt 0.259766 -0.374023
vt 0.259766 -0.383789
vt -0.260742 -0.383789
vt -0.260742 -0.288086
vt 0.259766 -0.288086
vt 0.259766 -0.374023
vt -0.260742 -0.374023
vt 0.579102 -0.269531
vt 0.500000 -0.398438
vt 0.423828 -0.269531
vt 0.336914 -0.254883
vt 0.363281 -0.475586
vt 0.367188 -0.254883
vt 0.336914 -0.254883
vt 0.363281 -0.475586
vt 0.367188 -0.254883
vt 0.418945 -0.272461
vt 0.581055 -0.272461
vt 0.500000 -0.401367
vt 0.336914 -0.254883
vt 0.367188 -0.254883
vt 0.363281 -0.475586
vt 0.336914 -0.254883
vt 0.363281 -0.475586
vt 0.367188 -0.254883
vt 0.336914 -0.254883
vt 0.363281 -0.475586
vt 0.367188 -0.254883
vt 0.336914 -0.254883
vt 0.367188 -0.254883
vt 0.363281 -0.475586
vt 0.418945 -0.272461
vt 0.581055 -0.272461
vt 0.500000 -0.401367
vt 0.336914 -0.254883
vt 0.363281 -0.475586
vt 0.367188 -0.254883
vt 0.336914 -0.254883
vt 0.363281 -0.475586
vt 0.367188 -0.254883
vt 0.418945 -0.272461
vt 0.500000 -0.401367
vt 0.581055 -0.272461
vt 0.336914 -0.254883
vt 0.367188 -0.254883
vt 0.363281 -0.475586
vt 0.336914 -0.254883
vt 0.367188 -0.254883
vt 0.363281 -0.475586
vt 0.336914 -0.254883
vt 0.367188 -0.254883
vt 0.363281 -0.475586
vt 0.418945 -0.272461
vt 0.500000 -0.401367
vt 0.581055 -0.272461
vt 0.336914 -0.254883
vt 0.367188 -0.254883
vt 0.363281 -0.475586
vt 0.159180 0.484375
vt -0.106445 0.606445
vt 0.166992 0.606445
vt -0.156250 0.532227
vt -0.028320 0.601562
vt -0.169922 0.601562
vt 0.531250 0.534180
vt 0.096680 0.500000
vt 0.531250 0.466797
vt 0.531250 0.534180
vt 0.096680 0.500000
vt 0.531250 0.466797
vt 0.531250 0.466797
vt 0.531250 0.534180
vt 0.096680 0.500000
vt 0.096680 0.500000
vt 0.531250 0.466797
vt 0.531250 0.534180
vt 0.531250 0.534180
vt 0.096680 0.500000
vt 0.531250 0.466797
vt -0.260742 0.143555
vt -0.130859 0.002930
vt -0.149414 0.143555
vt -0.260742 0.875000
vt -0.149414 0.875000
vt -0.105469 1.000000
vt 0.531250 0.534180
vt 0.096680 0.500000
vt 0.531250 0.466797
vt 0.148438 0.143555
vt 0.130859 0.002930
vt 0.260742 0.143555
vt 0.105469 1.000000
vt 0.148438 0.875000
vt 0.260742 0.875000
vt 0.638672 -0.018555
vt 0.373047 -0.018555
vt 0.639648 0.207031
vt 0.159180 0.484375
vt 0.166992 0.606445
vt -0.106445 0.606445
vt -0.028320 0.601562
vt -0.156250 0.532227
vt -0.169922 0.601562
vt 0.373047 -0.018555
vt 0.638672 -0.018555
vt 0.639648 0.207031
vt 0.338867 -0.334961
vt 0.364258 -0.334961
vt 0.351562 -0.447266
vt 0.579102 -0.269531
vt 0.423828 -0.269531
vt 0.500000 -0.398438
s 0
usemtl kart_body.003
f 1/1/1 2/2/1 3/3/1
f 2/2/2 4/4/2 3/3/2
f 3/3/3 4/4/3 5/5/3
f 4/4/3 6/6/3 5/5/3
f 5/5/4 6/6/4 7/7/4
f 6/6/5 8/8/5 7/7/5
f 7/7/6 8/8/6 9/9/6
f 8/8/7 10/10/7 9/9/7
f 9/9/8 10/10/8 11/11/8
f 10/10/9 12/12/9 11/11/9
f 13/13/10 14/14/10 15/15/10
f 14/14/11 16/16/11 15/15/11
f 15/15/12 16/16/12 17/17/12
f 16/16/13 18/18/13 17/17/13
f 17/17/14 18/18/14 19/19/14
f 18/18/14 20/20/14 19/19/14
f 19/19/15 20/20/15 21/21/15
f 20/20/16 22/22/16 21/21/16
f 21/21/17 22/22/17 23/23/17
f 22/22/18 24/24/18 23/23/18
f 25/25/19 26/26/19 27/27/19
f 26/26/19 28/28/19 27/27/19
f 27/27/20 28/28/20 29/29/20
f 28/28/20 30/30/20 29/29/20
f 31/31/21 32/32/21 33/33/21
f 32/32/22 34/34/22 33/33/22
f 35/35/23 36/36/23 37/37/23
f 36/36/24 38/38/24 37/37/24
f 39/39/25 40/40/25 41/41/25
f 40/40/26 42/42/26 41/41/26
f 43/43/27 44/44/27 45/45/27
f 44/44/28 46/46/28 45/45/28
f 47/47/29 48/48/29 49/49/29
f 48/48/30 50/50/30 49/49/30
f 51/51/31 52/52/31 53/53/31
f 52/52/32 54/54/32 53/53/32
f 55/55/33 56/56/33 57/57/33
f 57/57/33 58/58/33 55/55/33
f 59/59/34 60/60/34 61/61/34
f 61/61/34 62/62/34 59/59/34
f 63/63/35 64/64/35 65/65/35
f 65/65/35 66/66/35 63/63/35
f 67/67/36 68/68/36 69/69/36
f 69/69/36 70/70/36 67/67/36
f 71/71/36 72/72/36 73/73/36
f 73/73/36 74/74/36 71/71/36
f 75/75/37 76/76/37 77/77/37
f 77/77/37 78/78/37 75/75/37
f 79/79/38 80/80/38 81/81/38
f 81/81/38 82/82/38 79/79/38
f 83/83/38 84/84/38 85/85/38
f 85/85/38 86/86/38 83/83/38
f 87/87/33 88/88/33 89/89/33
f 89/89/33 90/90/33 87/87/33
f 91/91/35 92/92/35 93/93/35
f 93/93/35 94/94/35 91/91/35
f 95/95/39 96/96/39 97/97/39
f 97/97/39 98/98/39 95/95/39
f 99/99/40 100/100/40 101/101/40
f 101/101/40 102/102/40 99/99/40
f 103/103/41 104/104/41 105/105/41
f 106/106/42 107/107/42 108/108/42
f 109/109/43 110/110/43 111/111/43
f 112/112/44 113/113/44 114/114/44
f 115/115/45 116/116/45 117/117/45
f 118/118/46 119/119/46 120/120/46
f 121/121/47 122/122/47 123/123/47
f 124/124/48 125/125/48 126/126/48
f 127/127/49 128/128/49 129/129/49
f 130/130/50 131/131/50 132/132/50
f 133/133/51 134/134/51 135/135/51
f 136/136/52 137/137/52 138/138/52
f 139/139/53 140/140/53 141/141/53
f 142/142/54 143/143/54 144/144/54
f 145/145/55 146/146/55 147/147/55
f 148/148/56 149/149/56 150/150/56
f 151/151/57 152/152/57 153/153/57
f 154/154/35 155/155/35 156/156/35
f 157/157/38 158/158/38 159/159/38
f 160/160/58 161/161/58 162/162/58
f 163/163/59 164/164/59 165/165/59
f 166/166/60 167/167/60 168/168/60
f 169/169/61 170/170/61 171/171/61
f 172/172/62 173/173/62 174/174/62
f 175/175/19 176/176/19 177/177/19
f 178/178/63 179/179/63 180/180/63
f 181/181/64 182/182/64 183/183/64
f 184/184/19 185/185/19 186/186/19
f 187/187/63 188/188/63 189/189/63
f 190/190/65 191/191/65 192/192/65
f 193/193/38 194/194/38 195/195/38
f 196/196/35 197/197/35 198/198/35
f 199/199/66 200/200/66 201/201/66
f 202/202/67 203/203/67 204/204/67
f 205/205/68 206/206/68 207/207/68
o polygon1
v -0.406250 0.087646 -0.101562
v -0.406250 0.087646 0.114990
v -0.406250 0.303955 0.114990
v -0.406250 0.303955 -0.101562
v 0.406250 0.087646 0.114990
v 0.406250 0.087646 -0.101562
v 0.406250 0.303955 -0.101562
v 0.406250 0.303955 0.114990
v -0.143555 0.165039 0.686279
v 0.143555 0.165039 0.686279
v 0.143555 0.331299 0.452637
v -0.143555 0.331299 0.452637
vn -1.0000 -0.0000 -0.0000
vn 1.0000 -0.0000 -0.0000
vn -0.0000 0.8148 0.5798
vt 0.000000 -1.000000
vt 1.000000 -1.000000
vt 1.000000 0.000000
vt 0.000000 0.000000
vt 0.000000 -1.000000
vt 1.000000 -1.000000
vt 1.000000 0.000000
vt 0.000000 0.000000
vt 0.000000 -1.000000
vt 1.000000 -1.000000
vt 1.000000 0.000000
vt 0.000000 0.000000
s 0
usemtl kart_emblem.003
f 208/208/69 209/209/69 210/210/69
f 211/211/69 208/208/69 210/210/69
f 212/212/70 213/213/70 214/214/70
f 214/214/70 215/215/70 212/212/70
f 216/216/71 217/217/71 218/218/71
f 218/218/71 219/219/71 216/216/71
