# Blender 3.4.1
# www.blender.org
mtllib untitled.mtl
o E_DK
v -0.171387 0.783639 0.565221
v -0.071045 0.768676 0.651215
v 0.000000 0.834500 0.594528
v 0.071045 0.768676 0.651215
v 0.171387 0.783639 0.565221
v 0.109131 0.640392 0.633886
v -0.171387 0.783639 0.565221
v -0.109131 0.640392 0.633886
v -0.071045 0.768676 0.651215
v 0.000000 0.666619 0.664641
v 0.071045 0.768676 0.651215
v 0.109131 0.640392 0.633886
v 0.109131 0.640392 0.633886
v 0.000000 0.666619 0.664641
v 0.122070 0.586784 0.780444
v -0.122070 0.586784 0.780444
v -0.122070 0.586784 0.780444
v -0.121094 0.523746 0.778473
v 0.121094 0.523746 0.778473
v 0.122070 0.586784 0.780444
v 0.121094 0.523746 0.778473
v -0.121094 0.523746 0.778473
v -0.126465 0.409637 0.672234
v 0.126465 0.409637 0.672234
v -0.122070 0.586784 0.780444
v -0.109131 0.640392 0.633886
v -0.192383 0.545203 0.572215
v 0.121094 0.523746 0.778473
v 0.126465 0.409637 0.672234
v 0.192383 0.545203 0.572215
v -0.192383 0.545203 0.572215
v -0.126465 0.409637 0.672234
v -0.121094 0.523746 0.778473
v -0.121094 0.523746 0.778473
v -0.122070 0.586784 0.780444
v -0.192383 0.545203 0.572215
v 0.192383 0.545203 0.572215
v 0.122070 0.586784 0.780444
v 0.121094 0.523746 0.778473
v 0.122070 0.586784 0.780444
v 0.192383 0.545203 0.572215
v 0.109131 0.640392 0.633886
v 0.000000 0.666619 0.664641
v -0.109131 0.640392 0.633886
v -0.122070 0.586784 0.780444
v 0.000000 0.834500 0.594528
v -0.057129 0.913820 0.502910
v -0.171387 0.783639 0.565221
v 0.000000 0.932144 0.413920
v -0.121094 0.698351 0.254781
v 0.036377 0.928242 0.529250
v 0.000000 0.932144 0.413920
v -0.038330 0.990867 0.522438
v -0.057129 0.913820 0.502910
v -0.091553 0.908539 0.609963
v 0.000000 0.834500 0.594528
v 0.036377 0.928242 0.529250
v -0.057129 0.913820 0.502910
v -0.091553 0.908539 0.609963
v 0.000000 0.834500 0.594528
v 0.171387 0.783639 0.565221
v 0.036377 0.928242 0.529250
v 0.000000 0.932144 0.413920
v 0.112549 0.442551 0.439385
v 0.156494 0.562444 0.439294
v 0.192383 0.545203 0.572215
v 0.109131 0.640392 0.633886
v -0.377197 0.260342 0.168400
v -0.454590 0.432372 0.315534
v -0.257080 0.504624 0.045550
v -0.301758 0.693615 0.211406
v 0.171387 0.783639 0.565221
v 0.121094 0.698351 0.254781
v 0.000000 0.932144 0.413920
v -0.121094 0.698351 0.254781
v -0.109131 0.640392 0.633886
v -0.156494 0.562444 0.439294
v -0.192383 0.545203 0.572215
v -0.112549 0.442551 0.439385
v 0.377197 0.260342 0.168400
v 0.257080 0.504624 0.045550
v 0.454590 0.432372 0.315534
v 0.301758 0.693615 0.211406
v 0.377197 0.260342 0.168400
v 0.454590 0.432372 0.315534
v 0.237061 0.271969 0.585491
v 0.232666 0.322901 0.413833
v -0.183594 0.727956 0.398529
v -0.243164 0.343008 0.290380
v 0.183594 0.727956 0.398529
v 0.243164 0.343008 0.290380
v 0.301758 0.693615 0.211406
v 0.000000 0.758536 0.107364
v 0.183594 0.727956 0.398529
v -0.183594 0.727956 0.398529
v 0.243164 0.343008 0.290380
v -0.243164 0.343008 0.290380
v 0.169189 0.187482 0.150745
v -0.169189 0.187482 0.150745
v -0.158936 0.738160 0.510903
v 0.168213 0.738160 0.510903
v 0.250977 0.691227 0.444404
v -0.241699 0.691227 0.444404
v -0.241699 0.691227 0.444404
v 0.250977 0.691227 0.444404
v 0.137451 0.589186 0.548178
v -0.128174 0.589186 0.548178
v 0.108643 0.164194 0.325050
v 0.021973 0.575911 0.377258
v -0.021973 0.575911 0.377258
v -0.108643 0.164194 0.325050
v -0.156494 0.562444 0.439294
v -0.121094 0.698351 0.254781
v 0.121094 0.698351 0.254781
v 0.156494 0.562444 0.439294
v 0.117676 0.008034 0.433519
v 0.292480 0.192919 0.282013
v -0.292480 0.192919 0.282013
v -0.117676 0.008034 0.433519
v -0.112549 0.442551 0.439385
v -0.156494 0.562444 0.439294
v 0.156494 0.562444 0.439294
v 0.112549 0.442551 0.439385
v 0.126465 0.409637 0.672234
v -0.126465 0.409637 0.672234
v -0.112549 0.442551 0.439385
v 0.112549 0.442551 0.439385
v -0.169189 0.187482 0.150745
v -0.292480 0.192919 0.282013
v 0.292480 0.192919 0.282013
v 0.169189 0.187482 0.150745
v -0.183594 0.727956 0.398529
v 0.000000 0.758536 0.107364
v -0.301758 0.693615 0.211406
v 0.257080 0.504624 0.045550
v 0.243164 0.343008 0.290380
v 0.169189 0.187482 0.150745
v 0.000000 0.228828 -0.190438
v -0.257080 0.504624 0.045550
v 0.000000 0.556032 -0.113907
v 0.117676 0.008034 0.433519
v 0.168213 -0.001158 -0.047838
v 0.292480 0.192919 0.282013
v -0.257080 0.504624 0.045550
v -0.168213 -0.001158 -0.047838
v -0.169189 0.187482 0.150745
v 0.192383 0.545203 0.572215
v 0.126465 0.409637 0.672234
v 0.112549 0.442551 0.439385
v -0.192383 0.545203 0.572215
v -0.112549 0.442551 0.439385
v -0.126465 0.409637 0.672234
v -0.156494 0.562444 0.439294
v -0.171387 0.783639 0.565221
v -0.121094 0.698351 0.254781
v -0.171387 0.783639 0.565221
v -0.156494 0.562444 0.439294
v -0.109131 0.640392 0.633886
v 0.121094 0.698351 0.254781
v 0.171387 0.783639 0.565221
v 0.156494 0.562444 0.439294
v 0.156494 0.562444 0.439294
v 0.171387 0.783639 0.565221
v 0.109131 0.640392 0.633886
v -0.128174 0.589186 0.548178
v -0.158936 0.738160 0.510903
v -0.241699 0.691227 0.444404
v -0.091553 0.908539 0.609963
v 0.036377 0.928242 0.529250
v -0.038330 0.990867 0.522438
v 0.137451 0.589186 0.548178
v 0.250977 0.691227 0.444404
v 0.168213 0.738160 0.510903
v 0.023438 0.360380 0.471233
v 0.237061 0.271969 0.585491
v 0.232666 0.322901 0.413833
v 0.000000 0.228828 -0.190438
v 0.168213 -0.001158 -0.047838
v -0.168213 -0.001158 -0.047838
v 0.232666 0.322901 0.413833
v 0.454590 0.432372 0.315534
v 0.243164 0.343008 0.290380
v -0.454590 0.432372 0.315534
v -0.243164 0.343008 0.290380
v -0.183594 0.727956 0.398529
v 0.060547 0.132807 0.446032
v 0.377197 0.260342 0.168400
v 0.237061 0.271969 0.585491
v 0.023438 0.360380 0.471233
v 0.243164 0.343008 0.290380
v 0.060547 0.132807 0.446032
v -0.168213 -0.001158 -0.047838
v -0.117676 0.008034 0.433519
v -0.292480 0.192919 0.282013
v 0.292480 0.192919 0.282013
v 0.168213 -0.001158 -0.047838
v 0.169189 0.187482 0.150745
v -0.168213 -0.001158 -0.047838
v -0.292480 0.192919 0.282013
v -0.169189 0.187482 0.150745
v 0.168213 -0.001158 -0.047838
v 0.257080 0.504624 0.045550
v 0.169189 0.187482 0.150745
v 0.257080 0.504624 0.045550
v 0.000000 0.556032 -0.113907
v 0.301758 0.693615 0.211406
v 0.000000 0.758536 0.107364
v 0.301758 0.693615 0.211406
v 0.000000 0.556032 -0.113907
v 0.000000 0.556032 -0.113907
v 0.257080 0.504624 0.045550
v 0.000000 0.228828 -0.190438
v -0.301758 0.693615 0.211406
v 0.000000 0.758536 0.107364
v 0.000000 0.556032 -0.113907
v 0.257080 0.504624 0.045550
v 0.168213 -0.001158 -0.047838
v 0.000000 0.228828 -0.190438
v 0.000000 0.228828 -0.190438
v -0.168213 -0.001158 -0.047838
v -0.257080 0.504624 0.045550
v 0.454590 0.432372 0.315534
v 0.301758 0.693615 0.211406
v 0.183594 0.727956 0.398529
v 0.243164 0.343008 0.290380
v 0.454590 0.432372 0.315534
v 0.183594 0.727956 0.398529
v 0.060547 0.132807 0.446032
v 0.243164 0.343008 0.290380
v 0.377197 0.260342 0.168400
v 0.243164 0.343008 0.290380
v 0.257080 0.504624 0.045550
v 0.377197 0.260342 0.168400
v 0.232666 0.322901 0.413833
v 0.243164 0.343008 0.290380
v 0.023438 0.360380 0.471233
v -0.454590 0.432372 0.315534
v -0.237061 0.271969 0.585491
v -0.232666 0.322901 0.413833
v -0.243164 0.343008 0.290380
v -0.377197 0.260342 0.168400
v -0.257080 0.504624 0.045550
v -0.232666 0.322901 0.413833
v -0.243164 0.343008 0.290380
v -0.454590 0.432372 0.315534
v -0.060547 0.132807 0.446032
v -0.377197 0.260342 0.168400
v -0.243164 0.343008 0.290380
v -0.377197 0.260342 0.168400
v -0.237061 0.271969 0.585491
v -0.454590 0.432372 0.315534
v -0.454590 0.432372 0.315534
v -0.183594 0.727956 0.398529
v -0.301758 0.693615 0.211406
v -0.108643 0.164194 0.325050
v -0.000244 0.060302 0.408591
v 0.108643 0.164194 0.325050
v 0.060547 0.132807 0.446032
v 0.237061 0.271969 0.585491
v 0.023438 0.360380 0.471233
v -0.232666 0.322901 0.413833
v -0.023438 0.360380 0.471233
v -0.243164 0.343008 0.290380
v -0.060547 0.132807 0.446032
v -0.023438 0.360380 0.471233
v -0.237061 0.271969 0.585491
v -0.060547 0.132807 0.446032
v -0.237061 0.271969 0.585491
v -0.377197 0.260342 0.168400
v -0.023438 0.360380 0.471233
v -0.060547 0.132807 0.446032
v -0.243164 0.343008 0.290380
v -0.023438 0.360380 0.471233
v -0.232666 0.322901 0.413833
v -0.237061 0.271969 0.585491
v -0.257080 0.504624 0.045550
v -0.301758 0.693615 0.211406
v 0.000000 0.556032 -0.113907
v -0.257080 0.504624 0.045550
v -0.169189 0.187482 0.150745
v -0.243164 0.343008 0.290380
vn -0.8613 0.4310 0.2692
vn -0.2736 0.3591 0.8923
vn -0.0566 0.6950 0.7168
vn 0.2736 0.3591 0.8923
vn 0.8442 0.4284 0.3221
vn 0.7587 0.4145 0.5025
vn -0.8613 0.4309 0.2692
vn -0.7587 0.4145 0.5026
vn -0.0000 0.5435 0.8394
vn 0.7587 0.4144 0.5025
vn 0.7587 0.4145 0.5026
vn 0.5629 0.6012 0.5672
vn -0.5293 0.5898 0.6099
vn -0.5292 0.5899 0.6099
vn -0.5920 -0.3083 0.7446
vn 0.5920 -0.3083 0.7446
vn 0.5921 -0.3083 0.7446
vn -0.5921 -0.3083 0.7446
vn -0.5763 -0.7789 0.2474
vn 0.5763 -0.7789 0.2474
vn -0.7587 0.4144 0.5026
vn -0.9980 0.0381 0.0501
vn 0.9980 0.0380 0.0500
vn -0.9980 0.0380 0.0500
vn -0.5293 0.5899 0.6099
vn 0.9980 0.0381 0.0501
vn 0.7593 0.4137 0.5023
vn -0.0566 0.6949 0.7168
vn -0.9063 0.4121 0.0937
vn -0.0469 0.8292 -0.5569
vn -0.0000 0.4565 0.8897
vn -0.0469 0.8293 -0.5569
vn -0.3492 0.9331 -0.0861
vn -0.6053 -0.2473 0.7566
vn -0.9063 0.4120 0.0938
vn -0.6053 -0.2473 0.7567
vn 0.5902 -0.6159 -0.5219
vn -0.0000 0.4564 0.8898
vn 0.9980 0.0381 0.0500
vn 0.7588 0.4144 0.5025
vn -0.3025 -0.7872 -0.5375
vn -0.7497 0.5990 0.2814
vn -0.7739 0.0016 -0.6333
vn -0.6212 0.6985 -0.3552
vn 0.8442 0.4284 0.3222
vn -0.0000 0.2275 0.9738
vn -0.0001 0.4564 0.8898
vn -0.7588 0.4144 0.5025
vn -0.9980 0.0381 0.0500
vn -0.5902 -0.6159 -0.5219
vn 0.3025 -0.7872 -0.5375
vn 0.7739 0.0016 -0.6333
vn 0.7497 0.5990 0.2814
vn 0.6212 0.6985 -0.3552
vn 0.3025 -0.7872 -0.5374
vn 0.3396 0.1213 0.9327
vn -0.0684 0.9732 0.2197
vn -0.2964 0.6187 0.7276
vn -0.2326 -0.5416 0.8078
vn 0.2481 0.4481 0.8589
vn 0.4255 -0.5663 0.7058
vn -0.0000 0.9617 -0.2742
vn 0.2480 0.4481 0.8589
vn 0.4255 -0.5664 0.7058
vn 0.9328 -0.0968 0.3473
vn -0.9841 0.1635 0.0691
vn -0.0000 0.0826 -0.9966
vn -0.0000 -0.7127 -0.7015
vn -0.0000 0.1322 0.9912
vn 0.6595 -0.0091 0.7516
vn 0.6403 0.7580 0.1241
vn -0.6403 0.7580 0.1241
vn -0.6595 -0.0091 0.7516
vn -0.5902 -0.6159 -0.5218
vn 0.5902 -0.6159 -0.5218
vn -0.9841 0.1634 0.0691
vn -0.6403 0.7580 0.1242
vn 0.6403 0.7580 0.1242
vn 0.9327 -0.0968 0.3473
vn -0.2965 0.6186 0.7276
vn -0.0000 -0.0249 -0.9997
vn -0.0000 0.5374 -0.8434
vn 0.6596 -0.0091 0.7516
vn 0.8239 -0.2132 -0.5251
vn -0.7739 0.0015 -0.6333
vn -0.8239 -0.2131 -0.5251
vn 0.5764 -0.7789 0.2474
vn -0.5764 -0.7789 0.2474
vn -0.8613 0.4310 0.2691
vn -0.7587 0.4145 0.5025
vn -0.0001 0.2275 0.9738
vn 0.8442 0.4283 0.3222
vn -0.6444 0.0575 0.7625
vn -0.6054 -0.2472 0.7566
vn 0.6443 0.0575 0.7626
vn -0.3651 0.8916 0.2680
vn 0.3397 0.1213 0.9327
vn -0.0000 -0.0250 -0.9997
vn 0.8239 -0.2131 -0.5251
vn -0.0684 0.9732 0.2198
vn 0.7497 0.5990 0.2815
vn -0.7230 0.4334 -0.5379
vn -0.7496 0.5990 0.2815
vn -0.0001 -0.2709 0.9626
vn -0.2965 0.6187 0.7276
vn -0.7599 -0.5857 -0.2819
vn 0.3026 -0.7872 -0.5374
vn -0.3651 0.8915 0.2680
vn -0.7230 0.4334 -0.5380
vn -0.8239 -0.2132 -0.5251
vn -0.6596 -0.0091 0.7516
vn 0.6404 0.7580 0.1241
vn -0.6404 0.7580 0.1241
vn 0.7739 0.0015 -0.6333
vn -0.0000 0.5373 -0.8434
vn 0.6212 0.6985 -0.3553
vn 0.0001 -0.2709 0.9626
vn 0.7496 0.5990 0.2815
vn -0.7600 -0.5857 -0.2819
vn -0.3651 0.8916 0.2681
vn -0.7497 0.5990 0.2815
vn -0.3396 0.1212 0.9327
vn 0.0684 0.9732 0.2197
vn 0.7230 0.4334 -0.5380
vn -0.3025 -0.7872 -0.5374
vn 0.0684 0.9732 0.2198
vn 0.7230 0.4334 -0.5379
vn 0.7600 -0.5857 -0.2819
vn -0.6212 0.6985 -0.3553
vn -0.0000 -0.0064 1.0000
vn -0.3650 0.8916 0.2681
vn 0.3651 0.8916 0.2681
vn 0.3650 0.8916 0.2681
vn -0.3396 0.1213 0.9327
vn 0.7599 -0.5857 -0.2819
vn -0.3026 -0.7872 -0.5374
vn 0.3651 0.8915 0.2680
vn 0.3651 0.8916 0.2680
vn -0.3397 0.1213 0.9327
vt 1.412109 0.892578
vt 1.755859 0.761719
vt 2.000000 1.181641
vt 2.244141 0.761719
vt 2.587891 0.892578
vt 2.378906 0.222656
vt 1.412109 0.892578
vt 1.621094 0.222656
vt 1.755859 0.761719
vt 2.000000 0.292969
vt 2.244141 0.761719
vt 2.378906 0.222656
vt 1.390625 1.000000
vt 1.001953 1.000000
vt 1.390625 0.501953
vt 0.611328 0.501953
vt 0.847656 0.460938
vt 0.847656 0.136719
vt 1.152344 0.136719
vt 1.152344 0.460938
vt 1.214844 0.121094
vt 0.783203 0.121094
vt 0.763672 -0.060547
vt 1.234375 -0.060547
vt 0.671875 0.566406
vt 0.671875 1.283203
vt 0.707031 0.564453
vt 1.214844 0.121094
vt 1.234375 -0.060547
vt 1.328125 0.121094
vt 0.667969 0.121094
vt 0.763672 -0.060547
vt 0.783203 0.121094
vt 0.847656 0.136719
vt 0.847656 0.460938
vt 0.648438 0.296875
vt 1.351562 0.296875
vt 1.152344 0.460938
vt 1.152344 0.136719
vt 0.664062 0.568359
vt 0.714844 0.570312
vt 1.273438 0.779297
vt 1.001953 1.000000
vt 0.611328 1.000000
vt 0.611328 0.501953
vt 0.371094 0.578125
vt 0.451172 0.674805
vt 0.513672 0.546875
vt 0.535156 0.703125
vt 0.640625 0.545898
vt 0.693359 0.582031
vt 0.566406 0.738281
vt 0.433594 0.580078
vt 0.367188 0.620117
vt 0.363281 0.510742
vt 0.566406 0.531250
vt 0.675781 0.639648
vt 0.396484 0.625000
vt 0.521484 0.708984
vt 0.359375 0.578125
vt 0.511719 0.547852
vt 0.416016 0.681641
vt 0.537109 0.699219
vt 1.792969 0.691406
vt 1.574219 0.779297
vt 1.919922 0.556641
vt 1.734375 0.584961
vt 0.470703 0.909180
vt 0.470703 1.099609
vt 0.228516 0.909180
vt 0.228516 1.099609
vt 0.511719 0.547852
vt 0.650391 0.546875
vt 0.537109 0.699219
vt 0.640625 0.545898
vt 1.734375 0.584961
vt 1.574219 0.779297
vt 1.919922 0.556641
vt 1.792969 0.691406
vt 0.228516 1.099609
vt 0.228516 0.909180
vt 0.470703 1.099609
vt 0.470703 0.909180
vt 1.640625 0.546875
vt 1.626953 0.733398
vt 0.982422 0.530273
vt 1.222656 0.721680
vt 1.744141 0.864258
vt 1.710938 0.488281
vt 2.257812 0.864258
vt 2.291016 0.488281
vt 2.523438 1.040039
vt 1.996094 0.952148
vt 2.251953 0.810547
vt 1.742188 0.810547
vt 2.291016 0.488281
vt 1.710938 0.488281
vt 2.287109 -0.001953
vt 1.714844 -0.001953
vt 1.246094 1.469727
vt 1.246094 1.266602
vt 1.224609 1.266602
vt 1.224609 1.469727
vt 1.242188 1.435547
vt 1.242188 1.267578
vt 1.224609 1.267578
vt 1.224609 1.435547
vt 0.996094 0.105469
vt 0.880859 0.507812
vt 0.603516 0.507812
vt 0.375000 0.105469
vt 0.419922 0.561523
vt 0.580078 0.561523
vt 0.580078 0.720703
vt 0.419922 0.720703
vt 0.277344 0.890625
vt 0.505859 0.890625
vt 0.505859 1.119141
vt 0.277344 1.119141
vt 2.287109 0.646484
vt 2.410156 0.646484
vt 2.410156 0.636719
vt 2.287109 0.636719
vt 1.050781 1.284180
vt 0.933594 1.284180
vt 0.917969 1.363281
vt 1.066406 1.363281
vt 0.277344 0.890625
vt 0.505859 0.890625
vt 0.505859 1.119141
vt 0.277344 1.119141
vt 1.742188 0.810547
vt 1.996094 0.952148
vt 1.468750 1.040039
vt 2.431641 0.798828
vt 2.162109 0.624023
vt 2.351562 0.363281
vt 0.507812 1.166992
vt 0.035156 1.005859
vt 0.507812 0.843750
vt 0.501953 1.131836
vt -0.042969 0.994141
vt 0.501953 0.856445
vt 0.501953 1.131836
vt -0.042969 0.994141
vt 0.501953 0.856445
vt 1.130859 1.364258
vt 1.050781 1.284180
vt 1.066406 1.363281
vt 0.853516 1.364258
vt 0.917969 1.363281
vt 0.933594 1.284180
vt 0.419922 0.561523
vt 0.580078 0.561523
vt 0.580078 0.720703
vt 0.419922 0.561523
vt 0.580078 0.561523
vt 0.580078 0.720703
vt 0.419922 0.561523
vt 0.580078 0.561523
vt 0.580078 0.720703
vt 0.419922 0.561523
vt 0.580078 0.561523
vt 0.580078 0.720703
vt 0.812500 0.739258
vt 0.812500 0.832031
vt 0.933594 0.795898
vt 0.363281 0.510742
vt 0.693359 0.582031
vt 0.433594 0.580078
vt 0.812500 0.739258
vt 0.933594 0.795898
vt 0.812500 0.832031
vt 1.021484 0.751953
vt 1.031250 0.888672
vt 1.335938 0.814453
vt 0.507812 1.166992
vt 0.035156 1.005859
vt 0.507812 0.843750
vt 1.228516 0.681641
vt 1.595703 0.589844
vt 1.425781 0.717773
vt 0.005859 1.000977
vt 0.511719 0.802734
vt 0.511719 1.198242
vt 1.005859 0.543945
vt 1.615234 0.635742
vt 1.005859 0.728516
vt 1.453125 0.953125
vt 1.466797 0.602539
vt 0.935547 0.965820
vt 0.501953 1.131836
vt -0.042969 0.994141
vt 0.501953 0.856445
vt 0.501953 1.131836
vt -0.042969 0.994141
vt 0.501953 0.856445
vt 0.501953 1.131836
vt -0.042969 0.994141
vt 0.501953 0.856445
vt 0.501953 1.131836
vt -0.042969 0.994141
vt 0.501953 0.856445
vt 0.507812 1.166992
vt 0.035156 1.005859
vt 0.507812 0.843750
vt 0.507812 1.166992
vt 0.035156 1.005859
vt 0.507812 0.843750
vt 0.507812 1.166992
vt 0.035156 1.005859
vt 0.507812 0.843750
vt 0.507812 1.166992
vt 0.035156 1.005859
vt 0.507812 0.843750
vt 0.507812 1.166992
vt 0.035156 1.005859
vt 0.507812 0.843750
vt 0.507812 1.166992
vt 0.035156 1.005859
vt 0.507812 0.843750
vt 0.500000 0.823242
vt 0.017578 1.000977
vt 0.500000 1.177734
vt 0.017578 1.000977
vt 0.500000 1.177734
vt 0.500000 0.823242
vt 1.054688 0.548828
vt 1.431641 0.548828
vt 1.730469 0.794922
vt 0.500000 0.823242
vt 0.017578 1.000977
vt 0.500000 1.177734
vt 1.222656 0.580078
vt 1.439453 0.635742
vt 1.066406 0.698242
vt 1.634766 0.733398
vt 0.982422 0.530273
vt 1.222656 0.721680
vt 0.511719 1.198242
vt 0.005859 1.000977
vt 0.511719 0.802734
vt 1.234375 0.681641
vt 1.425781 0.717773
vt 1.595703 0.589844
vt 1.078125 0.548828
vt 1.730469 0.794922
vt 1.431641 0.548828
vt 1.648438 0.546875
vt 0.988281 0.530273
vt 1.634766 0.733398
vt 0.511719 1.198242
vt 0.005859 1.000977
vt 0.511719 0.802734
vt 0.375000 0.105469
vt 0.685547 -0.042969
vt 0.996094 0.105469
vt 1.462891 1.005859
vt 0.914062 1.006836
vt 0.914062 1.110352
vt 1.232422 0.580078
vt 1.076172 0.698242
vt 1.439453 0.635742
vt 1.462891 1.005859
vt 0.914062 1.110352
vt 0.914062 1.006836
vt 1.015625 0.543945
vt 1.015625 0.728516
vt 1.615234 0.635742
vt 1.453125 0.953125
vt 0.935547 0.965820
vt 1.466797 0.585938
vt 1.021484 0.751953
vt 1.335938 0.814453
vt 1.031250 0.888672
vt 0.507812 1.166992
vt 0.035156 1.005859
vt 0.507812 0.843750
vt 2.431641 0.798828
vt 2.351562 0.363281
vt 2.162109 0.624023
s 1
usemtl E_face.002
f 1/1/1 2/2/2 3/3/3
f 2/2/2 4/4/4 3/3/3
f 3/3/3 4/4/4 5/5/5
f 4/4/4 6/6/6 5/5/5
f 7/7/7 8/8/8 9/9/2
f 8/8/8 10/10/9 9/9/2
f 9/9/2 10/10/9 11/11/4
f 10/10/9 12/12/10 11/11/4
f 13/13/11 14/14/9 15/15/12
f 14/14/9 16/16/13 15/15/12
f 17/17/14 18/18/15 19/19/16 20/20/12
f 21/21/17 22/22/18 23/23/19 24/24/20
f 25/25/13 26/26/21 27/27/22
f 28/28/16 29/29/20 30/30/23
f 31/31/24 32/32/19 33/33/15
f 34/34/15 35/35/25 36/36/22
f 37/37/26 38/38/12 39/39/16
f 40/40/12 41/41/26 42/42/27
f 43/43/9 44/44/8 45/45/13
usemtl E_main.002
f 46/46/28 47/47/29 48/48/1
f 47/47/29 49/49/30 48/48/1
f 48/48/1 49/49/30 50/50/31
f 51/51/12 52/52/32 53/53/33
f 52/52/32 54/54/29 53/53/33
f 53/53/33 54/54/29 55/55/34
f 56/56/3 57/57/12 58/58/35
f 57/57/12 59/59/36 58/58/35
f 60/60/3 61/61/5 62/62/12
f 61/61/5 63/63/32 62/62/12
f 64/64/37 65/65/38 66/66/39
f 65/65/38 67/67/40 66/66/39
f 68/68/41 69/69/42 70/70/43
f 69/69/42 71/71/44 70/70/43
f 72/72/45 73/73/46 74/74/32
f 73/73/46 75/75/47 74/74/32
f 76/76/48 77/77/38 78/78/49
f 77/77/38 79/79/50 78/78/49
f 80/80/51 81/81/52 82/82/53
f 81/81/52 83/83/54 82/82/53
f 84/84/55 85/85/53 86/86/56
f 85/85/53 87/87/57 86/86/56
f 88/88/58 89/89/59 90/90/60
f 89/89/59 91/91/61 90/90/60
f 92/92/54 93/93/62 94/94/63
f 93/93/62 95/95/58 94/94/63
f 96/96/64 97/97/59 98/98/65
f 97/97/59 99/99/66 98/98/65
f 100/100/32 101/101/32 102/102/67 103/103/67
f 104/104/67 105/105/67 106/106/68 107/107/68
f 108/108/46 109/109/69 110/110/69 111/111/46
f 112/112/38 113/113/38 114/114/46 115/115/38
f 116/116/70 117/117/71 118/118/72 119/119/73
f 120/120/74 121/121/38 122/122/38 123/123/75
f 124/124/20 125/125/19 126/126/50 127/127/37
f 128/128/76 129/129/77 130/130/78 131/131/79
f 132/132/80 133/133/62 134/134/44
f 135/135/52 136/136/61 137/137/79
f 138/138/81 139/139/43 140/140/82
f 141/141/83 142/142/84 143/143/78
f 144/144/85 145/145/86 146/146/76
f 147/147/26 148/148/87 149/149/37
f 150/150/22 151/151/50 152/152/88
f 153/153/31 154/154/89 155/155/38
f 156/156/1 157/157/38 158/158/90
f 159/159/91 160/160/5 161/161/31
f 162/162/38 163/163/92 164/164/6
s 0
f 165/165/93 166/166/93 167/167/93
s 1
f 168/168/94 169/169/12 170/170/33
s 0
f 171/171/95 172/172/95 173/173/95
s 1
f 174/174/96 175/175/97 176/176/57
f 177/177/98 178/178/99 179/179/86
f 180/180/100 181/181/101 182/182/102
f 183/183/103 184/184/104 185/185/105
f 186/186/106 187/187/107 188/188/56
f 189/189/108 190/190/109 191/191/106
f 192/192/110 193/193/111 194/194/77
f 195/195/112 196/196/99 197/197/79
f 198/198/86 199/199/113 200/200/76
f 201/201/99 202/202/114 203/203/79
f 204/204/52 205/205/115 206/206/116
f 207/207/62 208/208/54 209/209/82
f 210/210/82 211/211/52 212/212/81
f 213/213/44 214/214/62 215/215/82
f 216/216/52 217/217/99 218/218/98
f 219/219/98 220/220/86 221/221/43
f 222/222/101 223/223/116 224/224/60
f 225/225/117 226/226/118 227/227/60
f 228/228/119 229/229/102 230/230/55
f 231/231/109 232/232/52 233/233/55
f 234/234/57 235/235/109 236/236/120
f 237/237/121 238/238/122 239/239/123
f 240/240/124 241/241/125 242/242/43
f 243/243/126 244/244/127 245/245/121
f 246/246/128 247/247/125 248/248/127
f 249/249/125 250/250/122 251/251/42
f 252/252/121 253/253/80 254/254/129
f 255/255/46 256/256/130 257/257/46
f 258/258/119 259/259/56 260/260/131
f 261/261/123 262/262/132 263/263/124
f 264/264/128 265/265/133 266/266/134
f 267/267/135 268/268/134 269/269/136
f 270/270/137 271/271/135 272/272/124
f 273/273/138 274/274/123 275/275/139
f 276/276/43 277/277/129 278/278/115
f 279/279/43 280/280/76 281/281/59
