# Blender v3.4.1 OBJ File: ''
# www.blender.org
mtllib untitled.mtl
o E_MR
v 0.000000 0.311894 -0.048116
v 0.000000 0.386210 0.176843
v 0.060791 0.338583 0.176275
v 0.000000 0.337044 0.211222
v 0.000000 0.289276 0.177203
v -0.059326 0.338583 0.176275
v 0.000000 0.311894 -0.048116
v 0.000000 0.386210 0.176843
v 0.068359 0.231277 0.066703
v 0.127686 0.295788 0.056210
v 0.000000 0.299129 0.129890
v 0.114502 0.441160 0.047612
v 0.000000 0.461358 0.108766
v 0.149414 0.416178 -0.034207
v 0.179688 0.393852 -0.091659
v 0.111816 0.307390 -0.053892
v 0.165039 0.318927 -0.063632
v 0.135254 0.292176 -0.018931
v 0.127686 0.295788 0.056210
v 0.068359 0.231277 0.066703
v 0.135254 0.292176 -0.018931
v 0.000000 0.241011 -0.090734
v 0.111816 0.307390 -0.053892
v 0.149414 0.416178 -0.034207
v 0.114502 0.441160 0.047612
v 0.135254 0.292176 -0.018931
v 0.127686 0.295788 0.056210
v -0.149414 0.416178 -0.034207
v -0.111816 0.307390 -0.053892
v -0.179688 0.393852 -0.091659
v -0.165039 0.318927 -0.063632
v -0.179688 0.393852 -0.091659
v -0.165039 0.318927 -0.063632
v -0.149414 0.416178 -0.034207
v -0.135254 0.292176 -0.018931
v -0.149414 0.416178 -0.034207
v -0.135254 0.292176 -0.018931
v -0.114502 0.441160 0.047612
v -0.127686 0.295788 0.056210
v 0.135254 0.292176 -0.018931
v 0.165039 0.318927 -0.063632
v 0.149414 0.416178 -0.034207
v 0.179688 0.393852 -0.091659
v -0.127686 0.295788 0.056210
v -0.135254 0.292176 -0.018931
v -0.068359 0.231277 0.066703
v 0.000000 0.241011 -0.090734
v -0.068359 0.231277 0.066703
v 0.000000 0.299129 0.129890
v -0.127686 0.295788 0.056210
v -0.114502 0.441160 0.047612
v 0.000000 0.374070 -0.169669
v 0.149414 0.416178 -0.034207
v 0.120605 0.304197 -0.132703
v 0.000000 0.299129 0.129890
v 0.000000 0.461358 0.108766
v -0.114502 0.441160 0.047612
v 0.000000 0.374070 -0.169669
v 0.120605 0.304197 -0.132703
v -0.120605 0.304197 -0.132703
v 0.000000 0.241011 -0.090734
v -0.135254 0.292176 -0.018931
v -0.111816 0.307390 -0.053892
v 0.060791 0.338583 0.176275
v 0.000000 0.289276 0.177203
v 0.000000 0.311894 -0.048116
v -0.120605 0.304197 -0.132703
v 0.120605 0.304197 -0.132703
v 0.000000 0.270955 -0.173344
v 0.000000 0.337044 0.211222
v 0.000000 0.386210 0.176843
v -0.059326 0.338583 0.176275
v 0.000000 0.241011 -0.090734
v -0.120605 0.304197 -0.132703
v 0.000000 0.270955 -0.173344
v -0.165039 0.318927 -0.063632
v -0.111816 0.307390 -0.053892
v -0.135254 0.292176 -0.018931
v 0.120605 0.304197 -0.132703
v 0.000000 0.241011 -0.090734
v 0.000000 0.270955 -0.173344
v 0.111816 0.307390 -0.053892
v 0.120605 0.304197 -0.132703
v 0.149414 0.416178 -0.034207
v -0.149414 0.416178 -0.034207
v 0.000000 0.374070 -0.169669
v -0.120605 0.304197 -0.132703
v 0.111816 0.307390 -0.053892
v 0.000000 0.241011 -0.090734
v 0.120605 0.304197 -0.132703
v -0.111816 0.307390 -0.053892
v -0.120605 0.304197 -0.132703
v 0.000000 0.241011 -0.090734
v -0.111816 0.307390 -0.053892
v -0.149414 0.416178 -0.034207
v -0.120605 0.304197 -0.132703
v 0.068359 0.231277 0.066703
v 0.000000 0.299129 0.129890
v -0.068359 0.231277 0.066703
v 0.097412 0.208240 0.178973
v 0.054932 0.262087 0.328377
v 0.186279 0.184966 0.213841
v 0.089355 0.118605 0.307636
v 0.114990 0.086820 0.123876
v -0.098389 0.590295 0.031374
v -0.166992 0.487415 0.014265
v 0.000000 0.580320 0.111166
v -0.114502 0.441160 0.047612
v 0.000000 0.506631 0.114019
v -0.097412 0.208240 0.178973
v -0.186279 0.184966 0.213841
v -0.054932 0.262087 0.328377
v -0.089355 0.118605 0.307636
v 0.112061 0.457640 -0.218370
v -0.112061 0.457640 -0.218370
v 0.000000 0.637531 0.011194
v -0.098389 0.590295 0.031374
v 0.166992 0.487415 0.014265
v 0.112061 0.457640 -0.218370
v 0.098389 0.590295 0.031374
v 0.000000 0.637531 0.011194
v 0.094971 0.241932 -0.093682
v 0.118652 0.134417 -0.058693
v 0.000000 -0.036692 -0.133122
v 0.135254 -0.034725 -0.028648
v -0.114990 0.086820 0.123876
v -0.118652 0.134417 -0.058693
v -0.135254 -0.034725 -0.028648
v 0.000000 -0.036692 -0.133122
v 0.114502 0.441160 0.047612
v 0.000000 0.506631 0.114019
v 0.072021 0.476258 0.186869
v -0.072021 0.476258 0.186869
v 0.098389 0.590295 0.031374
v 0.000000 0.637531 0.011194
v 0.000000 0.580320 0.111166
v -0.098389 0.590295 0.031374
v 0.098389 0.590295 0.031374
v 0.000000 0.580320 0.111166
v 0.166992 0.487415 0.014265
v 0.114502 0.441160 0.047612
v 0.072021 0.476258 0.186869
v -0.072021 0.476258 0.186869
v -0.114502 0.441160 0.047612
v 0.114502 0.441160 0.047612
v 0.103271 -0.026931 0.385341
v 0.114990 0.086820 0.123876
v -0.114990 0.086820 0.123876
v -0.103271 -0.026931 0.385341
v 0.100098 0.243679 -0.013867
v 0.094971 0.241932 -0.093682
v -0.094971 0.241932 -0.093682
v -0.100098 0.243679 -0.013867
v 0.114990 0.086820 0.123876
v 0.100098 0.243679 -0.013867
v -0.100098 0.243679 -0.013867
v -0.114990 0.086820 0.123876
v 0.118652 0.134417 -0.058693
v 0.197754 0.165781 0.050843
v 0.114990 0.086820 0.123876
v 0.197754 0.165781 0.050843
v 0.094971 0.241932 -0.093682
v 0.100098 0.243679 -0.013867
v 0.186279 0.184966 0.213841
v 0.114990 0.086820 0.123876
v 0.197754 0.165781 0.050843
v -0.197754 0.165781 0.050843
v -0.100098 0.243679 -0.013867
v -0.094971 0.241932 -0.093682
v -0.094971 0.241932 -0.093682
v -0.118652 0.134417 -0.058693
v -0.197754 0.165781 0.050843
v 0.097412 0.208240 0.178973
v 0.197754 0.165781 0.050843
v 0.100098 0.243679 -0.013867
v -0.114990 0.086820 0.123876
v -0.089355 0.118605 0.307636
v -0.186279 0.184966 0.213841
v 0.100098 0.243679 -0.013867
v 0.114990 0.086820 0.123876
v 0.097412 0.208240 0.178973
v 0.094971 0.241932 -0.093682
v 0.197754 0.165781 0.050843
v 0.118652 0.134417 -0.058693
v 0.000000 -0.036692 -0.133122
v -0.094971 0.241932 -0.093682
v 0.094971 0.241932 -0.093682
v -0.118652 0.134417 -0.058693
v -0.114990 0.086820 0.123876
v -0.197754 0.165781 0.050843
v -0.114990 0.086820 0.123876
v -0.054932 0.262087 0.328377
v -0.089355 0.118605 0.307636
v 0.054932 0.262087 0.328377
v 0.114990 0.086820 0.123876
v 0.089355 0.118605 0.307636
v -0.097412 0.208240 0.178973
v -0.054932 0.262087 0.328377
v -0.114990 0.086820 0.123876
v 0.097412 0.208240 0.178973
v 0.114990 0.086820 0.123876
v 0.054932 0.262087 0.328377
v -0.186279 0.184966 0.213841
v -0.197754 0.165781 0.050843
v -0.114990 0.086820 0.123876
v 0.135254 -0.034725 -0.028648
v 0.114990 0.086820 0.123876
v 0.103271 -0.026931 0.385341
v 0.118652 0.134417 -0.058693
v 0.114990 0.086820 0.123876
v 0.135254 -0.034725 -0.028648
v -0.135254 -0.034725 -0.028648
v -0.103271 -0.026931 0.385341
v -0.114990 0.086820 0.123876
v 0.112061 0.457640 -0.218370
v 0.000000 0.374070 -0.169669
v -0.112061 0.457640 -0.218370
v 0.112061 0.457640 -0.218370
v 0.149414 0.416178 -0.034207
v 0.000000 0.374070 -0.169669
v -0.149414 0.416178 -0.034207
v -0.112061 0.457640 -0.218370
v 0.000000 0.374070 -0.169669
v -0.166992 0.487415 0.014265
v -0.149414 0.416178 -0.034207
v -0.114502 0.441160 0.047612
v -0.112061 0.457640 -0.218370
v -0.149414 0.416178 -0.034207
v -0.166992 0.487415 0.014265
v 0.166992 0.487415 0.014265
v 0.149414 0.416178 -0.034207
v 0.112061 0.457640 -0.218370
v -0.166992 0.487415 0.014265
v -0.098389 0.590295 0.031374
v -0.112061 0.457640 -0.218370
v 0.166992 0.487415 0.014265
v 0.114502 0.441160 0.047612
v 0.149414 0.416178 -0.034207
v 0.114502 0.441160 0.047612
v 0.000000 0.580320 0.111166
v 0.000000 0.506631 0.114019
v -0.072021 0.476258 0.186869
v 0.000000 0.506631 0.114019
v -0.114502 0.441160 0.047612
v 0.000000 -0.036692 -0.133122
v -0.118652 0.134417 -0.058693
v -0.094971 0.241932 -0.093682
v -0.197754 0.165781 0.050843
v -0.097412 0.208240 0.178973
v -0.100098 0.243679 -0.013867
v -0.186279 0.184966 0.213841
v -0.097412 0.208240 0.178973
v -0.197754 0.165781 0.050843
v -0.100098 0.243679 -0.013867
v -0.097412 0.208240 0.178973
v -0.114990 0.086820 0.123876
v 0.186279 0.184966 0.213841
v 0.197754 0.165781 0.050843
v 0.097412 0.208240 0.178973
vt 0.958984 0.156250
vt 0.980469 0.046875
vt 0.935547 0.041016
vt 0.933594 0.023438
vt 0.886719 0.035156
vt 0.935547 0.041016
vt 0.958984 0.156250
vt 0.980469 0.046875
vt 0.365234 0.015625
vt 0.638672 0.183594
vt 0.019531 0.224609
vt 0.558594 0.976562
vt 0.019531 0.986328
vt 0.910156 0.105469
vt 0.978516 0.091797
vt 0.910156 0.044922
vt 0.968750 0.054688
vt 0.958984 0.019531
vt 0.978516 0.019531
vt 0.966797 0.017578
vt 0.982422 0.056641
vt 0.947266 0.089844
vt 0.976562 0.072266
vt 1.099609 0.990234
vt 0.605469 0.951172
vt 0.994141 0.400391
vt 0.625000 0.335938
vt 0.910156 0.105469
vt 0.910156 0.044922
vt 0.978516 0.091797
vt 0.968750 0.054688
vt 0.998047 0.386719
vt 0.914062 0.113281
vt 0.751953 0.353516
vt 0.740234 0.080078
vt 1.099609 0.990234
vt 0.994141 0.400391
vt 0.605469 0.951172
vt 0.625000 0.335938
vt 0.740234 0.080078
vt 0.914062 0.113281
vt 0.751953 0.353516
vt 0.998047 0.386719
vt 0.916016 0.019531
vt 0.912109 0.056641
vt 0.929688 0.017578
vt 0.947266 0.089844
vt 0.365234 0.015625
vt 0.019531 0.224609
vt 0.638672 0.183594
vt 0.558594 0.976562
vt 0.966797 0.882812
vt 1.041016 0.882812
vt 1.041016 0.957031
vt 0.019531 0.224609
vt 0.019531 0.986328
vt 0.558594 0.976562
vt 0.966797 0.882812
vt 1.041016 0.882812
vt 1.041016 0.957031
vt 0.947266 0.089844
vt 0.912109 0.056641
vt 0.917969 0.072266
vt 0.935547 0.041016
vt 0.886719 0.035156
vt 0.958984 0.156250
vt 0.830078 0.671875
vt 0.892578 0.736328
vt 0.830078 0.736328
vt 0.933594 0.023438
vt 0.980469 0.046875
vt 0.935547 0.041016
vt 0.943359 0.738281
vt 1.050781 0.738281
vt 1.050781 0.845703
vt 0.968750 0.054688
vt 0.910156 0.044922
vt 0.958984 0.019531
vt 0.943359 0.738281
vt 1.050781 0.738281
vt 1.050781 0.845703
vt 0.966797 0.882812
vt 1.041016 0.882812
vt 1.041016 0.957031
vt 0.966797 0.882812
vt 1.041016 0.882812
vt 1.041016 0.957031
vt 0.966797 0.882812
vt 1.041016 0.882812
vt 1.041016 0.957031
vt 0.966797 0.882812
vt 1.041016 0.882812
vt 1.041016 0.957031
vt 0.966797 0.882812
vt 1.041016 0.882812
vt 1.041016 0.957031
vt -0.298828 -0.070312
vt 0.000000 0.253906
vt 0.300781 -0.074219
vt 0.043945 0.830078
vt 0.181641 0.830078
vt 0.245117 0.701172
vt -0.031250 0.699219
vt 0.653320 0.994141
vt 0.269531 0.994141
vt 0.642578 0.894531
vt 0.270508 0.513672
vt 0.752930 0.513672
vt 0.546875 0.445312
vt 0.667969 0.009766
vt 0.265625 0.470703
vt 0.528320 -0.181641
vt 0.265625 0.076172
vt 0.653320 0.994141
vt 0.642578 0.894531
vt 0.269531 0.994141
vt 0.270508 0.513672
vt 0.245117 1.236328
vt 0.001953 1.236328
vt 0.123047 0.748047
vt 0.052734 0.746094
vt 0.243164 0.746094
vt 0.245117 1.236328
vt 0.194336 0.746094
vt 0.123047 0.748047
vt 2.103516 0.679688
vt 2.002930 0.419922
vt 2.255859 -0.261719
vt 1.973633 0.000000
vt 1.838867 0.355469
vt 2.002930 0.419922
vt 1.973633 0.000000
vt 2.255859 -0.261719
vt 0.076172 1.037109
vt 0.117188 1.302734
vt 0.117188 1.037109
vt 0.117188 1.037109
vt 0.212891 0.714844
vt 0.257812 0.845703
vt 0.257812 0.714844
vt 0.212891 0.714844
vt 0.546875 0.445312
vt 0.265625 0.470703
vt 0.667969 0.009766
vt 0.528320 -0.181641
vt 0.789062 0.064453
vt 0.908203 0.244141
vt 0.908203 0.244141
vt 0.789062 0.064453
vt 1.234375 0.892578
vt 1.204102 1.130859
vt 0.800781 1.130859
vt 0.770508 0.892578
vt 1.228516 0.185547
vt 1.229492 1.070312
vt 0.770508 1.070312
vt 0.771484 0.185547
vt 0.948242 0.958984
vt 1.037109 0.958984
vt 1.037109 1.046875
vt 0.948242 0.958984
vt 1.037109 0.958984
vt 1.037109 1.046875
vt 0.948242 0.958984
vt 1.037109 0.958984
vt 1.037109 1.046875
vt 0.936523 0.906250
vt 1.059570 0.906250
vt 1.059570 1.029297
vt 0.936523 0.906250
vt 1.059570 0.906250
vt 1.059570 1.029297
vt 0.948242 0.958984
vt 1.037109 0.958984
vt 1.037109 1.046875
vt 0.752930 0.513672
vt 0.270508 0.513672
vt 0.642578 0.894531
vt 0.948242 0.958984
vt 1.037109 0.958984
vt 1.037109 1.046875
vt 0.948242 0.958984
vt 1.037109 0.958984
vt 1.037109 1.046875
vt 0.004883 -0.048828
vt -0.188477 0.429688
vt 0.198242 0.429688
vt 0.936523 0.906250
vt 1.059570 0.906250
vt 1.059570 1.029297
vt 0.415039 0.835938
vt 0.269531 0.529297
vt 0.271484 1.027344
vt 0.269531 0.529297
vt 0.415039 0.835938
vt 0.271484 1.027344
vt 0.648438 0.835938
vt 0.282227 0.833984
vt 0.605469 0.875000
vt 0.648438 0.835938
vt 0.605469 0.875000
vt 0.282227 0.833984
vt 0.936523 0.906250
vt 1.059570 0.906250
vt 1.059570 1.029297
vt 0.970703 0.064453
vt 0.908203 0.244141
vt 0.789062 0.064453
vt 2.002930 0.419922
vt 1.838867 0.355469
vt 1.973633 0.000000
vt 0.970703 0.064453
vt 0.789062 0.064453
vt 0.908203 0.244141
vt 0.601562 0.357422
vt 0.600586 0.357422
vt 0.600586 0.355469
vt 0.601562 0.357422
vt 0.600586 0.357422
vt 0.600586 0.355469
vt 0.601562 0.357422
vt 0.600586 0.357422
vt 0.600586 0.355469
vt 0.601562 0.357422
vt 0.600586 0.357422
vt 0.600586 0.355469
vt 0.601562 0.357422
vt 0.600586 0.357422
vt 0.600586 0.355469
vt 0.601562 0.357422
vt 0.600586 0.357422
vt 0.600586 0.355469
vt 0.003906 0.746094
vt 0.052734 0.746094
vt 0.001953 1.236328
vt 0.601562 0.357422
vt 0.600586 0.357422
vt 0.600586 0.355469
vt 0.528320 -0.181641
vt 0.265625 0.470703
vt 0.265625 0.076172
vt 0.117188 1.037109
vt 0.117188 1.302734
vt 0.158203 1.037109
vt 2.255859 -0.261719
vt 2.002930 0.419922
vt 2.103516 0.679688
vt 0.936523 0.906250
vt 1.059570 0.906250
vt 1.059570 1.029297
vt 0.936523 0.906250
vt 1.059570 0.906250
vt 1.059570 1.029297
vt 0.936523 0.906250
vt 1.059570 0.906250
vt 1.059570 1.029297
vt 0.948242 0.958984
vt 1.037109 0.958984
vt 1.037109 1.046875
vn 0.0000 -0.0578 -0.9983
vn -0.0058 0.9331 0.3596
vn 0.8748 -0.0046 0.4844
vn -0.0059 -0.0007 1.0000
vn -0.0058 -0.8918 0.4523
vn -0.8790 -0.0047 0.4768
vn -0.0059 0.9331 0.3596
vn 0.5018 -0.7516 0.4282
vn 0.7971 -0.2278 0.5592
vn 0.0000 -0.1455 0.9894
vn 0.7892 0.0682 0.6103
vn -0.0000 0.1281 0.9918
vn 0.8978 0.1348 0.4192
vn 0.0274 0.0320 -0.9991
vn 0.3240 -0.7068 -0.6289
vn 0.7991 -0.5740 -0.1788
vn 0.8419 -0.5395 -0.0153
vn 0.7971 -0.2279 0.5592
vn 0.8419 -0.5395 -0.0152
vn -0.0000 -0.9454 -0.3259
vn 0.8979 0.1348 0.4191
vn 0.7892 0.0681 0.6103
vn -0.8978 0.1348 0.4192
vn -0.3240 -0.7067 -0.6289
vn -0.0274 0.0320 -0.9991
vn -0.7991 -0.5739 -0.1787
vn -0.0273 0.0319 -0.9991
vn -0.7991 -0.5740 -0.1787
vn -0.8979 0.1348 0.4191
vn -0.8419 -0.5395 -0.0153
vn -0.7892 0.0681 0.6103
vn -0.7971 -0.2279 0.5592
vn 0.7991 -0.5740 -0.1787
vn 0.0273 0.0319 -0.9991
vn -0.8419 -0.5395 -0.0152
vn -0.5018 -0.7516 0.4282
vn -0.7971 -0.2278 0.5592
vn -0.7893 0.0681 0.6103
vn 0.0000 0.2219 -0.9751
vn 0.9204 0.0964 -0.3790
vn 0.6482 -0.3679 -0.6667
vn 0.6481 -0.3680 -0.6667
vn -0.6481 -0.3680 -0.6667
vn -0.8418 -0.5395 -0.0152
vn -0.3240 -0.7068 -0.6289
vn 0.8748 -0.0045 0.4844
vn -0.0059 -0.8919 0.4523
vn -0.6482 -0.3679 -0.6667
vn -0.0001 -0.6122 -0.7907
vn -0.6481 -0.3679 -0.6668
vn -0.0000 -0.6122 -0.7907
vn 0.6481 -0.3679 -0.6668
vn 0.3240 -0.7067 -0.6289
vn 0.6482 -0.3679 -0.6668
vn 0.9203 0.0964 -0.3791
vn -0.9204 0.0964 -0.3790
vn -0.9203 0.0964 -0.3791
vn -0.6482 -0.3679 -0.6668
vn 0.0000 -0.9697 0.2444
vn -0.2911 0.9404 -0.1759
vn -0.7797 0.6158 0.1135
vn 0.9449 0.1963 0.2619
vn 0.3049 -0.6754 0.6714
vn -0.3417 -0.9351 -0.0937
vn -0.6468 0.7421 0.1756
vn -0.9106 0.0702 0.4072
vn 0.0000 0.3670 0.9302
vn -0.7209 0.1476 0.6772
vn -0.0000 0.8198 0.5727
vn 0.2911 0.9404 -0.1759
vn -0.9449 0.1963 0.2618
vn 0.7797 0.6158 0.1135
vn -0.3048 -0.6754 0.6715
vn 0.7030 0.1902 -0.6853
vn -0.7030 0.1902 -0.6853
vn -0.0000 0.9934 -0.1144
vn 0.9106 0.0703 0.4072
vn 0.7030 0.1903 -0.6853
vn 0.6468 0.7421 0.1756
vn 0.0000 0.9934 -0.1143
vn 0.5720 0.4854 -0.6612
vn 0.8294 -0.0320 -0.5577
vn 0.9679 0.0363 -0.2486
vn -0.6438 -0.4547 0.6154
vn -0.8295 -0.0320 -0.5576
vn -0.9679 0.0363 -0.2486
vn 0.7208 0.1476 0.6772
vn -0.0000 0.8197 0.5727
vn 0.2423 0.9569 0.1599
vn -0.2424 0.9569 0.1599
vn 0.9106 0.0702 0.4072
vn 0.7209 0.1476 0.6772
vn 0.6719 0.6682 0.3195
vn 0.6762 0.5965 0.4325
vn -0.6438 -0.4547 0.6155
vn -0.6719 0.6682 0.3195
vn 0.0644 0.9673 0.2454
vn 0.5719 0.4854 -0.6613
vn -0.5719 0.4854 -0.6613
vn -0.0644 0.9673 0.2454
vn 0.6762 0.5964 0.4325
vn 0.0645 0.9673 0.2454
vn -0.0645 0.9673 0.2454
vn 0.7806 -0.4493 -0.4346
vn 0.9453 0.2801 -0.1674
vn -0.9453 0.2801 -0.1674
vn -0.5720 0.4854 -0.6612
vn -0.7806 -0.4493 -0.4346
vn -0.6438 -0.4548 0.6154
vn -0.3049 -0.6754 0.6714
vn -0.9449 0.1963 0.2619
vn -0.3416 -0.9351 -0.0938
vn -0.2911 0.9404 -0.1760
vn 0.7797 0.6158 0.1134
vn -0.3049 -0.6754 0.6715
vn -0.7797 0.6158 0.1134
vn -0.3416 -0.9352 -0.0936
vn 0.3049 -0.6754 0.6715
vn 0.2911 0.9404 -0.1760
vn -0.3417 -0.9351 -0.0936
vn 0.9679 0.0363 -0.2485
vn 0.6718 0.6683 0.3195
vn 0.6762 0.5965 0.4324
vn -0.9679 0.0363 -0.2485
vn -0.6718 0.6683 0.3195
vn 0.7030 0.1902 -0.6852
vn 0.0000 -0.8323 -0.5544
vn -0.7030 0.1902 -0.6852
vn -0.0000 -0.8323 -0.5543
vn -0.9107 0.0702 0.4072
vn 0.9107 0.0702 0.4072
vn -0.9106 0.0703 0.4072
vn -0.7208 0.1476 0.6772
vn 0.0000 -0.0579 -0.9983
vn -0.8294 -0.0320 -0.5577
vn 0.2910 0.9404 -0.1759
vn -0.2910 0.9404 -0.1759
usemtl E_face
s 1
f 1/1/1 2/2/2 3/3/3
f 2/2/2 4/4/4 3/3/3
f 3/3/3 4/4/4 5/5/5
f 4/4/4 6/6/6 5/5/5
f 5/5/5 6/6/6 7/7/1
f 6/6/6 8/8/7 7/7/1
f 9/9/8 10/10/9 11/11/10
f 10/10/9 12/12/11 11/11/10
f 11/11/10 12/12/11 13/13/12
f 14/14/13 15/15/14 16/16/15
f 15/15/14 17/17/16 16/16/15
f 16/16/15 17/17/16 18/18/17
f 19/19/18 20/20/8 21/21/19
f 20/20/8 22/22/20 21/21/19
f 21/21/19 22/22/20 23/23/15
f 24/24/21 25/25/22 26/26/17
f 25/25/22 27/27/18 26/26/17
f 28/28/23 29/29/24 30/30/25
f 29/29/24 31/31/26 30/30/25
f 32/32/27 33/33/28 34/34/29
f 33/33/28 35/35/30 34/34/29
f 36/36/29 37/37/30 38/38/31
f 37/37/30 39/39/32 38/38/31
f 40/40/17 41/41/33 42/42/21
f 41/41/33 43/43/34 42/42/21
f 44/44/32 45/45/35 46/46/36
f 45/45/35 47/47/20 46/46/36
f 48/48/36 49/49/10 50/50/37
f 49/49/10 51/51/38 50/50/37
f 52/52/39 53/53/40 54/54/41
f 55/55/10 56/56/12 57/57/31
f 58/58/39 59/59/42 60/60/43
f 61/61/20 62/62/44 63/63/45
f 64/64/46 65/65/47 66/66/1
f 67/67/48 68/68/41 69/69/49
f 70/70/4 71/71/2 72/72/6
f 73/73/20 74/74/50 75/75/51
f 76/76/28 77/77/45 78/78/30
f 79/79/52 80/80/20 81/81/51
f 82/82/53 83/83/54 84/84/55
f 85/85/56 86/86/39 87/87/48
f 88/88/15 89/89/20 90/90/41
f 91/91/45 92/92/48 93/93/20
f 94/94/24 95/95/57 96/96/58
f 97/97/8 98/98/10 99/99/36
usemtl E_main
s off
f 142/100/59 143/101/59 144/102/59 145/103/59
s 1
f 100/104/60 101/105/61 102/106/62
f 101/105/61 103/107/63 102/106/62
f 102/106/62 103/107/63 104/108/64
f 105/109/65 106/110/66 107/111/67
f 106/110/66 108/112/68 107/111/67
f 107/111/67 108/112/68 109/113/69
f 110/114/70 111/115/71 112/116/72
f 111/115/71 113/117/73 112/116/72
f 114/118/74 115/119/75 116/120/76
f 115/119/75 117/121/65 116/120/76
f 118/122/77 119/123/78 120/124/79
f 119/123/78 121/125/80 120/124/79
f 122/126/81 123/127/82 124/128/1
f 123/127/82 125/129/83 124/128/1
f 126/130/84 127/131/85 128/132/86
f 127/131/85 129/133/1 128/132/86
f 130/134/87 131/135/88 132/136/89
f 131/135/88 133/137/90 132/136/89
f 134/138/79 135/139/76 136/140/67
f 135/139/76 137/141/65 136/140/67
f 138/142/79 139/143/67 140/144/91
f 139/143/67 141/145/92 140/144/91
f 146/146/93 147/147/94 148/148/95 149/149/96
f 150/150/97 151/151/98 152/152/99 153/153/100
f 154/154/101 155/155/102 156/156/103 157/157/84
f 158/158/104 159/159/105 160/160/64
f 161/161/105 162/162/81 163/163/97
f 164/164/62 165/165/64 166/166/105
f 167/167/106 168/168/100 169/169/107
f 170/170/107 171/171/108 172/172/106
f 173/173/60 174/174/105 175/175/97
f 176/176/109 177/177/110 178/178/111
f 179/179/97 180/180/112 181/181/113
f 182/182/81 183/183/105 184/184/104
f 185/185/1 186/186/107 187/187/81
f 188/188/108 189/189/84 190/190/106
f 191/191/84 192/192/114 193/193/115
f 194/194/116 195/195/117 196/196/118
f 197/197/119 198/198/72 199/199/109
f 200/200/113 201/201/120 202/202/61
f 203/203/111 204/204/106 205/205/109
f 206/206/121 207/207/94 208/208/122
f 209/209/82 210/210/123 211/211/83
f 212/212/124 213/213/125 214/214/109
f 215/215/126 216/216/127 217/217/128
f 218/218/126 219/219/19 220/220/129
f 221/221/35 222/222/128 223/223/129
f 224/224/66 225/225/30 226/226/68
f 227/227/75 228/228/35 229/229/130
f 230/230/131 231/231/19 232/232/74
f 233/233/132 234/234/65 235/235/75
f 236/236/91 237/237/92 238/238/17
f 239/239/92 240/240/67 241/241/69
f 242/242/90 243/243/69 244/244/133
f 245/245/134 246/246/135 247/247/107
f 248/248/106 249/249/70 250/250/100
f 251/251/111 252/252/136 253/253/106
f 254/254/100 255/255/119 256/256/84
f 257/257/62 258/258/105 259/259/137
