# Blender 3.4.1
# www.blender.org
mtllib untitled.mtl
o polygon0
v 0.000000 0.564941 -0.035400
v 0.000000 0.527100 -0.032959
v 0.105957 0.529541 -0.047851
v 0.076660 0.505127 -0.040771
v 0.092285 0.359375 -0.108398
v 0.066895 0.374756 -0.086670
v -0.092285 0.359375 -0.108398
v -0.066895 0.374756 -0.086670
v -0.105957 0.529541 -0.047851
v -0.076660 0.505127 -0.040771
v 0.000000 0.564941 -0.035400
v 0.000000 0.527100 -0.032959
v 0.000000 0.527100 -0.032959
v 0.000000 0.564941 -0.035400
v 0.076660 0.505127 -0.040771
v 0.105957 0.529541 -0.047851
v 0.066895 0.374756 -0.086670
v 0.092285 0.359375 -0.108398
v -0.066895 0.374756 -0.086670
v -0.092285 0.359375 -0.108398
v 0.043213 0.400879 0.742920
v -0.043213 0.400879 0.742920
v 0.127686 0.301269 0.742920
v -0.127686 0.301269 0.742920
v 0.121826 0.102539 0.742920
v -0.121826 0.102539 0.742920
v -0.066895 0.374756 -0.086670
v -0.092285 0.359375 -0.108398
v -0.076660 0.505127 -0.040771
v -0.105957 0.529541 -0.047851
v 0.000000 0.527100 -0.032959
v 0.000000 0.564941 -0.035400
v 0.278076 0.125488 0.691406
v -0.278076 0.125488 0.691406
v 0.278076 0.163574 0.718018
v -0.278076 0.163574 0.718018
v 0.278076 0.125488 0.691406
v -0.278076 0.125488 0.691406
v -0.218506 0.061035 -0.255615
v -0.121826 0.102539 0.742920
v -0.265869 0.308105 -0.116699
v -0.127686 0.301269 0.742920
v -0.123047 0.453125 0.175781
v -0.043213 0.400879 0.742920
v -0.255127 0.377685 0.753418
v -0.196777 0.450928 0.753418
v -0.196533 0.314453 0.661133
v -0.137451 0.378906 0.753418
v -0.195801 0.307861 0.753418
v 0.196777 0.450928 0.753418
v 0.255127 0.377685 0.753418
v 0.196533 0.314453 0.661133
v 0.195801 0.307861 0.753418
v 0.137451 0.378906 0.753418
v 0.043213 0.400879 0.742920
v 0.127686 0.301269 0.742920
v 0.123047 0.453125 0.175781
v 0.265869 0.308105 -0.116699
v -0.265869 0.308105 -0.116699
v 0.000000 0.230957 -0.410156
v -0.262939 0.541992 -0.697021
v 0.262939 0.541992 -0.697021
v 0.127686 0.301269 0.742920
v 0.121826 0.102539 0.742920
v 0.265869 0.308105 -0.116699
v 0.218506 0.061035 -0.255615
v -0.218506 0.061035 -0.255615
v -0.265869 0.308105 -0.116699
v -0.241943 0.156250 -0.770020
v -0.250977 0.347901 -0.769043
v 0.250977 0.347901 -0.769043
v 0.265869 0.308105 -0.116699
v 0.241943 0.156250 -0.770020
v 0.218506 0.061035 -0.255615
v -0.265869 0.308105 -0.116699
v 0.000000 0.299316 0.100098
v 0.000000 0.230957 -0.410156
v 0.265869 0.308105 -0.116699
v 0.186768 0.317627 0.791504
v 0.321045 0.318359 0.791748
v 0.330322 0.318359 0.577637
v 0.177490 0.318359 0.577637
v 0.218506 0.061035 -0.255615
v -0.218506 0.061035 -0.255615
v -0.241943 0.156250 -0.770020
v 0.241943 0.156250 -0.770020
v 0.121826 0.102539 0.742920
v -0.121826 0.102539 0.742920
v -0.218506 0.061035 -0.255615
v 0.218506 0.061035 -0.255615
v 0.123047 0.453125 0.175781
v 0.140625 0.492432 0.099365
v -0.140625 0.492432 0.099365
v -0.123047 0.453125 0.175781
v 0.043213 0.400879 0.742920
v 0.123047 0.453125 0.175781
v -0.123047 0.453125 0.175781
v -0.043213 0.400879 0.742920
v -0.241943 0.156250 -0.770020
v -0.250977 0.347901 -0.769043
v 0.250977 0.347901 -0.769043
v 0.241943 0.156250 -0.770020
v -0.264160 0.490479 -0.670166
v -0.484863 0.490479 -0.670166
v -0.428223 0.275635 -0.795654
v -0.322998 0.275635 -0.795654
v -0.264160 0.491211 -0.414062
v -0.264160 0.490479 -0.670166
v -0.484863 0.490479 -0.670166
v -0.484863 0.491699 -0.413818
v -0.276855 0.284912 -0.256592
v -0.264160 0.491211 -0.414062
v -0.484863 0.491699 -0.413818
v -0.406494 0.284912 -0.256592
v 0.276855 0.284912 -0.256592
v 0.406494 0.284912 -0.256592
v 0.484863 0.491699 -0.413818
v 0.264160 0.491211 -0.414062
v 0.129883 0.451172 0.761719
v 0.129883 0.318359 0.760986
v 0.262695 0.318603 0.760498
v 0.262695 0.451416 0.761231
v -0.129883 0.451172 0.761719
v -0.262695 0.451416 0.761231
v -0.262695 0.318603 0.760498
v -0.129883 0.318359 0.760986
v 0.264160 0.490479 -0.670166
v 0.484863 0.490479 -0.670166
v 0.428223 0.275635 -0.795654
v 0.322998 0.275635 -0.795654
v -0.186768 0.317627 0.791504
v -0.321045 0.318359 0.791748
v -0.330322 0.318359 0.577637
v -0.177490 0.318359 0.577637
v 0.264160 0.491211 -0.414062
v 0.484863 0.491699 -0.413818
v 0.484863 0.490479 -0.670166
v 0.264160 0.490479 -0.670166
v 0.177490 0.318359 0.577637
v 0.330322 0.318359 0.577637
v 0.288574 0.123535 0.479492
v 0.190430 0.123535 0.479492
v -0.177490 0.318359 0.577637
v -0.330322 0.318359 0.577637
v -0.288574 0.123535 0.479492
v -0.190430 0.123535 0.479492
v -0.186768 0.317627 0.791504
v -0.177490 0.318359 0.577637
v -0.330322 0.318359 0.577637
v -0.321045 0.318359 0.791748
v -0.177490 0.318359 0.577637
v -0.190430 0.123535 0.479492
v -0.288574 0.123535 0.479492
v -0.330322 0.318359 0.577637
v -0.264160 0.491211 -0.414062
v -0.484863 0.491699 -0.413818
v -0.484863 0.490479 -0.670166
v -0.264160 0.490479 -0.670166
v -0.276855 0.284912 -0.256592
v -0.406494 0.284912 -0.256592
v -0.484863 0.491699 -0.413818
v -0.264160 0.491211 -0.414062
v -0.262939 0.541992 -0.697021
v 0.262939 0.541992 -0.697021
v 0.250977 0.347901 -0.769043
v -0.250977 0.347901 -0.769043
v 0.264160 0.490479 -0.670166
v 0.322998 0.275635 -0.795654
v 0.428223 0.275635 -0.795654
v 0.484863 0.490479 -0.670166
v 0.276855 0.284912 -0.256592
v 0.264160 0.491211 -0.414062
v 0.484863 0.491699 -0.413818
v 0.406494 0.284912 -0.256592
v 0.264160 0.491211 -0.414062
v 0.264160 0.490479 -0.670166
v 0.484863 0.490479 -0.670166
v 0.484863 0.491699 -0.413818
v 0.177490 0.318359 0.577637
v 0.190430 0.123535 0.479492
v 0.288574 0.123535 0.479492
v 0.330322 0.318359 0.577637
v 0.186768 0.317627 0.791504
v 0.177490 0.318359 0.577637
v 0.330322 0.318359 0.577637
v 0.321045 0.318359 0.791748
v -0.264160 0.490479 -0.670166
v -0.322998 0.275635 -0.795654
v -0.428223 0.275635 -0.795654
v -0.484863 0.490479 -0.670166
v -0.112305 0.197998 -0.908447
v -0.192383 0.314697 -0.845703
v -0.031738 0.314697 -0.846191
v -0.112305 0.197998 -0.908447
v -0.031738 0.314697 -0.846191
v -0.112061 0.179443 -0.688477
v -0.031738 0.314697 -0.846191
v -0.192383 0.314697 -0.845703
v -0.112061 0.179443 -0.688477
v -0.192383 0.314697 -0.845703
v -0.112305 0.197998 -0.908447
v -0.112061 0.179443 -0.688477
v -0.040771 0.469971 -0.071289
v 0.040771 0.469971 -0.071289
v 0.000000 0.395264 -0.091309
v 0.017578 0.449463 -0.074951
v -0.017578 0.449463 -0.074951
v 0.000000 0.225830 0.375000
v 0.196533 0.314453 0.661133
v 0.137451 0.378906 0.753418
v 0.196777 0.450928 0.753418
v -0.195801 0.307861 0.753418
v -0.255127 0.377685 0.753418
v -0.196533 0.314453 0.661133
v 0.040771 0.469971 -0.071289
v -0.040771 0.469971 -0.071289
v 0.000000 0.395264 -0.091309
v 0.000000 0.351074 0.711670
v 0.031250 0.480713 0.711670
v -0.031250 0.480713 0.711670
v 0.000000 0.351074 0.711670
v -0.031250 0.480713 0.711670
v 0.031250 0.480713 0.711670
v 0.000000 0.299316 0.100098
v -0.140625 0.492432 0.099365
v 0.140625 0.492432 0.099365
v -0.265869 0.308105 -0.116699
v -0.140625 0.492432 0.099365
v 0.000000 0.299316 0.100098
v 0.140625 0.492432 0.099365
v 0.123047 0.453125 0.175781
v 0.265869 0.308105 -0.116699
v -0.140625 0.492432 0.099365
v -0.265869 0.308105 -0.116699
v -0.123047 0.453125 0.175781
v 0.262939 0.541992 -0.697021
v 0.265869 0.308105 -0.116699
v 0.250977 0.347901 -0.769043
v -0.250977 0.347901 -0.769043
v -0.265869 0.308105 -0.116699
v -0.262939 0.541992 -0.697021
v 0.000000 0.230957 -0.410156
v 0.265869 0.308105 -0.116699
v 0.262939 0.541992 -0.697021
v 0.265869 0.308105 -0.116699
v 0.000000 0.299316 0.100098
v 0.140625 0.492432 0.099365
vn 0.1375 0.0638 0.9885
vn 0.1354 0.1227 0.9832
vn 0.4718 -0.3290 0.8180
vn 0.4959 -0.3212 0.8068
vn -0.0000 -0.8162 0.5778
vn -0.4925 -0.3266 0.8067
vn -0.4688 -0.3244 0.8216
vn -0.1505 0.1045 0.9831
vn -0.1193 0.0639 0.9908
vn -0.1193 -0.0639 -0.9908
vn -0.1505 -0.1045 -0.9831
vn -0.4688 0.3244 -0.8216
vn -0.4925 0.3266 -0.8067
vn -0.0000 0.8162 -0.5778
vn -0.0000 -0.0000 1.0000
vn 0.4959 0.3212 -0.8068
vn 0.4718 0.3290 -0.8180
vn 0.1354 -0.1227 -0.9832
vn 0.1375 -0.0638 -0.9885
vn -0.0000 0.5728 -0.8197
vn -0.0000 -0.5728 0.8197
vn -0.9645 -0.2431 0.1035
vn -0.9869 -0.0291 0.1584
vn -0.8304 0.5399 0.1378
vn -0.7523 0.6380 0.1647
vn -0.5746 0.4578 -0.6785
vn 0.5629 0.4637 -0.6842
vn 0.7717 -0.6338 -0.0514
vn 0.5746 0.4578 -0.6785
vn 0.7615 -0.6470 -0.0402
vn -0.7717 -0.6338 -0.0514
vn 0.7523 0.6380 0.1647
vn 0.8304 0.5399 0.1378
vn 0.5649 0.7643 0.3109
vn -0.0000 0.6780 0.7351
vn 0.9869 -0.0291 0.1584
vn 0.9645 -0.2431 0.1035
vn -0.9811 -0.1931 0.0090
vn -0.9986 -0.0469 -0.0257
vn 0.9986 -0.0469 -0.0257
vn 0.9811 -0.1931 0.0090
vn 0.1397 0.9814 -0.1315
vn -0.1397 0.9814 -0.1315
vn -0.0055 1.0000 -0.0002
vn -0.0000 1.0000 0.0034
vn -0.0000 -0.9833 -0.1820
vn -0.0000 -0.9991 0.0415
vn -0.0000 0.8893 0.4574
vn -0.0000 0.9958 0.0917
vn -0.0000 0.0051 -1.0000
vn -0.0000 -0.5044 0.8635
vn -0.0000 1.0000 -0.0029
vn 0.0022 1.0000 -0.0048
vn 0.0022 0.6067 0.7950
vn -0.0000 0.6052 0.7960
vn -0.0022 0.6067 0.7950
vn 0.0037 -0.0055 1.0000
vn -0.0037 -0.0055 1.0000
vn -0.0000 0.5044 -0.8635
vn -0.0055 -1.0000 0.0002
vn -0.0000 -1.0000 -0.0034
vn -0.0022 1.0000 -0.0048
vn -0.0000 0.4499 -0.8931
vn -0.0000 -0.4499 0.8931
vn 0.0055 1.0000 -0.0002
vn -0.0022 -1.0000 0.0048
vn -0.0000 -1.0000 0.0029
vn -0.0000 -0.6052 -0.7960
vn -0.0022 -0.6067 -0.7950
vn -0.0000 0.3479 -0.9375
vn 0.0022 -0.6067 -0.7950
vn 0.0022 -1.0000 0.0048
vn 0.0055 -1.0000 0.0002
vn -0.0027 0.4721 -0.8815
vn 0.8336 -0.5503 -0.0473
vn 0.0020 0.7586 0.6516
vn -0.8349 -0.5485 -0.0453
vn -0.0000 0.2588 -0.9659
vn -0.0000 0.8955 0.4451
vn -0.5629 0.4637 -0.6842
vn -0.7615 -0.6470 -0.0402
vn -0.0000 -0.2588 0.9659
vn -0.0000 -0.0000 -1.0000
vn -0.0000 -0.0038 -1.0000
vn 0.5816 0.4209 -0.6962
vn 0.9144 0.2338 0.3306
vn -0.9144 0.2338 0.3306
vn 0.9983 -0.0519 -0.0260
vn -0.9983 -0.0519 -0.0260
vn -0.5649 0.7643 0.3109
vn -0.5816 0.4209 -0.6962
vt 0.010742 -1.070312
vt 0.000000 -1.070312
vt 0.010742 -1.070312
vt 0.000000 -1.070312
vt 0.010742 -1.152344
vt 0.000000 -1.152344
vt 0.010742 -1.152344
vt 0.000000 -1.152344
vt 0.010742 -1.070312
vt 0.000000 -1.070312
vt 0.010742 -1.070312
vt 0.000000 -1.070312
vt 0.000000 -1.070312
vt 0.010742 -1.070312
vt 0.000000 -1.070312
vt 0.010742 -1.070312
vt 0.000000 -1.152344
vt 0.010742 -1.152344
vt 0.000000 -1.152344
vt 0.010742 -1.152344
vt 0.022461 0.780273
vt -0.022461 0.780273
vt 0.075684 0.674805
vt -0.075684 0.674805
vt 0.075684 0.497070
vt -0.075684 0.497070
vt 0.000000 -1.152344
vt 0.010742 -1.152344
vt 0.000000 -1.070312
vt 0.010742 -1.070312
vt 0.000000 -1.070312
vt 0.010742 -1.070312
vt 0.086426 -0.038086
vt 0.086426 0.036133
vt 0.080078 -0.038086
vt 0.080078 0.036133
vt 0.074707 -0.038086
vt 0.074707 0.036133
vt 0.357910 -0.672852
vt 0.078613 -0.671875
vt 0.321777 -0.593750
vt 0.078613 -0.593750
vt 0.234375 -0.498047
vt 0.078613 -0.525391
vt 0.081055 -0.347656
vt 0.073730 -0.347656
vt 0.073730 -0.333008
vt 0.081055 -0.347656
vt 0.097168 -0.347656
vt 0.073730 -0.347656
vt 0.081055 -0.347656
vt 0.073730 -0.333008
vt 0.097168 -0.347656
vt 0.081055 -0.347656
vt 0.078613 -0.525391
vt 0.078613 -0.593750
vt 0.234375 -0.498047
vt 0.321777 -0.593750
vt 0.046875 1.202148
vt 0.073730 1.000000
vt 0.132812 1.230469
vt 0.132812 0.768555
vt 0.078613 -0.593750
vt 0.078613 -0.671875
vt 0.321777 -0.593750
vt 0.357910 -0.672852
vt 0.696289 -0.670898
vt 0.676270 -0.595703
vt 0.788574 -0.672852
vt 0.788574 -0.583008
vt 0.788574 -0.583008
vt 0.676270 -0.595703
vt 0.788574 -0.672852
vt 0.696289 -0.670898
vt 0.857910 -1.248047
vt 0.857910 -1.268555
vt 0.806641 -1.255859
vt 0.857910 -1.248047
vt 0.383789 1.232422
vt 0.614258 1.232422
vt 0.640625 1.003906
vt 0.357422 1.003906
vt 1.740234 -0.335938
vt 1.740234 -0.664062
vt 1.890625 -0.664062
vt 1.890625 -0.335938
vt 1.079590 -0.388672
vt 1.079590 -0.608398
vt 1.354004 -0.660156
vt 1.354004 -0.336914
vt 0.317383 -0.572266
vt 0.318848 -0.551758
vt 0.297852 -0.551758
vt 0.299316 -0.572266
vt 0.078613 -0.525391
vt 0.234375 -0.498047
vt 0.234375 -0.498047
vt 0.078613 -0.525391
vt 1.356445 -1.326172
vt 1.358887 -1.172852
vt 1.195801 -1.172852
vt 1.198242 -1.326172
vt 0.359863 -0.036133
vt 0.640137 -0.036133
vt 0.564941 -0.513672
vt 0.434082 -0.513672
vt 0.359863 0.031250
vt 0.359863 -0.030273
vt 0.640137 -0.030273
vt 0.640137 0.031250
vt 0.413086 -0.513672
vt 0.359863 -0.036133
vt 0.640137 -0.036133
vt 0.575195 -0.513672
vt 0.413086 -0.513672
vt 0.575195 -0.513672
vt 0.640137 -0.036133
vt 0.359863 -0.036133
vt 0.358398 -0.829102
vt 0.195801 -0.830078
vt 0.196289 -1.171875
vt 0.358887 -1.170898
vt 0.358398 -0.829102
vt 0.358887 -1.170898
vt 0.196289 -1.171875
vt 0.195801 -0.830078
vt 0.359863 -0.036133
vt 0.640137 -0.036133
vt 0.564941 -0.513672
vt 0.434082 -0.513672
vt 0.383789 1.232422
vt 0.614258 1.232422
vt 0.640625 1.003906
vt 0.357422 1.003906
vt 0.359863 0.031250
vt 0.640137 0.031250
vt 0.640137 -0.030273
vt 0.359863 -0.030273
vt 0.357422 1.016602
vt 0.640625 1.016602
vt 0.573730 0.485352
vt 0.432129 0.485352
vt 0.357422 1.016602
vt 0.640625 1.016602
vt 0.573730 0.485352
vt 0.432129 0.485352
vt 0.383789 1.232422
vt 0.357422 1.003906
vt 0.640625 1.003906
vt 0.614258 1.232422
vt 0.357422 1.016602
vt 0.432129 0.485352
vt 0.573730 0.485352
vt 0.640625 1.016602
vt 0.359863 0.031250
vt 0.640137 0.031250
vt 0.640137 -0.030273
vt 0.359863 -0.030273
vt 0.413086 -0.513672
vt 0.575195 -0.513672
vt 0.640137 -0.036133
vt 0.359863 -0.036133
vt 0.133301 -0.764648
vt 0.133301 -1.233398
vt 0.190918 -1.233398
vt 0.190918 -0.764648
vt 0.359863 -0.036133
vt 0.434082 -0.513672
vt 0.564941 -0.513672
vt 0.640137 -0.036133
vt 0.413086 -0.513672
vt 0.359863 -0.036133
vt 0.640137 -0.036133
vt 0.575195 -0.513672
vt 0.359863 0.031250
vt 0.359863 -0.030273
vt 0.640137 -0.030273
vt 0.640137 0.031250
vt 0.357422 1.016602
vt 0.432129 0.485352
vt 0.573730 0.485352
vt 0.640625 1.016602
vt 0.383789 1.232422
vt 0.357422 1.003906
vt 0.640625 1.003906
vt 0.614258 1.232422
vt 0.359863 -0.036133
vt 0.434082 -0.513672
vt 0.564941 -0.513672
vt 0.640137 -0.036133
vt 0.993164 0.000000
vt 1.040039 -0.057617
vt 1.040039 0.056641
vt 0.875977 -0.162109
vt 0.881348 -0.162109
vt 0.877930 -0.285156
vt 0.875977 -0.162109
vt 0.881348 -0.162109
vt 0.877930 -0.285156
vt 0.881348 -0.162109
vt 0.875977 -0.162109
vt 0.877930 -0.285156
vt -0.007324 -1.044922
vt -0.007324 -0.955078
vt -0.057129 -0.998047
vt 0.007324 -1.050781
vt 0.007324 -1.090820
vt -0.058105 -1.071289
vt 0.073730 -0.333008
vt 0.081055 -0.347656
vt 0.073730 -0.347656
vt 0.097168 -0.347656
vt 0.081055 -0.347656
vt 0.073730 -0.333008
vt -0.007324 -1.044922
vt -0.007324 -0.955078
vt -0.057129 -0.998047
vt -0.117188 -1.160156
vt -0.114746 -1.194336
vt -0.119629 -1.194336
vt -0.117188 -1.160156
vt -0.119629 -1.194336
vt -0.114746 -1.194336
vt -0.051758 0.000000
vt 0.051270 -0.092773
vt 0.051270 0.092773
vt -0.044922 0.198242
vt -0.003906 0.169922
vt -0.044922 0.024414
vt 0.231445 -0.541016
vt 0.214844 -0.584961
vt 0.316406 -0.564453
vt 0.231445 -0.541016
vt 0.316406 -0.564453
vt 0.214844 -0.584961
vt 0.189453 1.232422
vt 0.186523 0.808594
vt 0.126953 1.232422
vt 0.126953 1.232422
vt 0.186523 0.808594
vt 0.189453 1.232422
vt 0.073730 1.000000
vt 0.046875 0.797852
vt 0.132812 0.768555
vt -0.044922 0.198242
vt -0.044922 0.024414
vt -0.003906 0.169922
s 0
usemtl kart_body.005
f 1/1/1 2/2/1 3/3/1
f 2/2/2 4/4/2 3/3/2
f 3/3/3 4/4/3 5/5/3
f 4/4/4 6/6/4 5/5/4
f 5/5/5 6/6/5 7/7/5
f 6/6/5 8/8/5 7/7/5
f 7/7/6 8/8/6 9/9/6
f 8/8/7 10/10/7 9/9/7
f 9/9/8 10/10/8 11/11/8
f 10/10/9 12/12/9 11/11/9
f 13/13/10 14/14/10 15/15/10
f 14/14/11 16/16/11 15/15/11
f 15/15/12 16/16/12 17/17/12
f 16/16/13 18/18/13 17/17/13
f 17/17/14 18/18/14 19/19/14
f 18/18/14 20/20/14 19/19/14
f 21/21/15 22/22/15 23/23/15
f 22/22/15 24/24/15 23/23/15
f 23/23/15 24/24/15 25/25/15
f 24/24/15 26/26/15 25/25/15
f 27/27/16 28/28/16 29/29/16
f 28/28/17 30/30/17 29/29/17
f 29/29/18 30/30/18 31/31/18
f 30/30/19 32/32/19 31/31/19
f 33/33/20 34/34/20 35/35/20
f 34/34/20 36/36/20 35/35/20
f 35/35/21 36/36/21 37/37/21
f 36/36/21 38/38/21 37/37/21
f 39/39/22 40/40/22 41/41/22
f 40/40/23 42/42/23 41/41/23
f 41/41/24 42/42/24 43/43/24
f 42/42/25 44/44/25 43/43/25
f 45/45/26 46/46/26 47/47/26
f 46/46/27 48/48/27 47/47/27
f 47/47/28 48/48/28 49/49/28
f 50/50/29 51/51/29 52/52/29
f 51/51/30 53/53/30 52/52/30
f 52/52/31 53/53/31 54/54/31
f 55/55/32 56/56/32 57/57/32
f 56/56/33 58/58/33 57/57/33
f 59/59/34 60/60/34 61/61/34
f 60/60/35 62/62/35 61/61/35
f 63/63/36 64/64/36 65/65/36
f 64/64/37 66/66/37 65/65/37
f 67/67/38 68/68/38 69/69/38
f 68/68/39 70/70/39 69/69/39
f 71/71/40 72/72/40 73/73/40
f 72/72/41 74/74/41 73/73/41
f 75/75/42 76/76/42 77/77/42
f 76/76/43 78/78/43 77/77/43
f 79/79/44 80/80/44 81/81/44
f 81/81/45 82/82/45 79/79/45
f 83/83/46 84/84/46 85/85/46
f 85/85/46 86/86/46 83/83/46
f 87/87/47 88/88/47 89/89/47
f 89/89/47 90/90/47 87/87/47
f 91/91/48 92/92/48 93/93/48
f 93/93/48 94/94/48 91/91/48
f 95/95/49 96/96/49 97/97/49
f 97/97/49 98/98/49 95/95/49
f 99/99/50 100/100/50 101/101/50
f 101/101/50 102/102/50 99/99/50
f 103/103/51 104/104/51 105/105/51
f 105/105/51 106/106/51 103/103/51
f 107/107/52 108/108/52 109/109/52
f 109/109/53 110/110/53 107/107/53
f 111/111/54 112/112/54 113/113/54
f 113/113/55 114/114/55 111/111/55
f 115/115/55 116/116/55 117/117/55
f 117/117/56 118/118/56 115/115/56
f 119/119/57 120/120/57 121/121/57
f 121/121/57 122/122/57 119/119/57
f 123/123/58 124/124/58 125/125/58
f 125/125/58 126/126/58 123/123/58
f 127/127/59 128/128/59 129/129/59
f 129/129/59 130/130/59 127/127/59
f 131/131/60 132/132/60 133/133/60
f 133/133/61 134/134/61 131/131/61
f 135/135/62 136/136/62 137/137/62
f 137/137/52 138/138/52 135/135/52
f 139/139/63 140/140/63 141/141/63
f 141/141/63 142/142/63 139/139/63
f 143/143/64 144/144/64 145/145/64
f 145/145/64 146/146/64 143/143/64
f 147/147/45 148/148/45 149/149/45
f 149/149/65 150/150/65 147/147/65
f 151/151/63 152/152/63 153/153/63
f 153/153/63 154/154/63 151/151/63
f 155/155/66 156/156/66 157/157/66
f 157/157/67 158/158/67 155/155/67
f 159/159/68 160/160/68 161/161/68
f 161/161/69 162/162/69 159/159/69
f 163/163/70 164/164/70 165/165/70
f 165/165/70 166/166/70 163/163/70
f 167/167/51 168/168/51 169/169/51
f 169/169/51 170/170/51 167/167/51
f 171/171/71 172/172/71 173/173/71
f 173/173/68 174/174/68 171/171/68
f 175/175/67 176/176/67 177/177/67
f 177/177/72 178/178/72 175/175/72
f 179/179/64 180/180/64 181/181/64
f 181/181/64 182/182/64 179/179/64
f 183/183/61 184/184/61 185/185/61
f 185/185/73 186/186/73 183/183/73
f 187/187/59 188/188/59 189/189/59
f 189/189/59 190/190/59 187/187/59
f 191/191/74 192/192/74 193/193/74
f 194/194/75 195/195/75 196/196/75
f 197/197/76 198/198/76 199/199/76
f 200/200/77 201/201/77 202/202/77
f 203/203/78 204/204/78 205/205/78
f 206/206/79 207/207/79 208/208/79
f 209/209/80 210/210/80 211/211/80
f 212/212/81 213/213/81 214/214/81
f 215/215/82 216/216/82 217/217/82
f 218/218/15 219/219/15 220/220/15
f 221/221/83 222/222/83 223/223/83
f 224/224/84 225/225/84 226/226/84
f 227/227/85 228/228/85 229/229/85
f 230/230/86 231/231/86 232/232/86
f 233/233/87 234/234/87 235/235/87
f 236/236/88 237/237/88 238/238/88
f 239/239/89 240/240/89 241/241/89
f 242/242/90 243/243/90 244/244/90
f 245/245/91 246/246/91 247/247/91
o polygon2
v 0.214355 0.111084 0.154541
v 0.244873 0.111084 -0.058594
v 0.270508 0.324707 -0.054932
v 0.240234 0.324707 0.158203
v -0.214355 0.111084 0.154541
v -0.239990 0.324707 0.158203
v -0.270508 0.324707 -0.054932
v -0.244873 0.111084 -0.058594
vn 0.9827 -0.1203 0.1407
vn 0.9827 -0.1214 0.1396
vn -0.9827 -0.1203 0.1407
vt 0.000000 -1.000000
vt 1.000000 -1.000000
vt 1.000000 0.000000
vt 0.000000 0.000000
vt 1.000000 -1.000000
vt 1.000000 0.000000
vt 0.000000 0.000000
vt 0.000000 -1.000000
s 0
usemtl kart_emblem.005
f 248/248/92 249/249/92 250/250/92
f 251/251/93 248/248/93 250/250/93
f 252/252/94 253/253/94 254/254/94
f 254/254/94 255/255/94 252/252/94
