# Blender v2.92.0 OBJ File: ''
# www.blender.org
mtllib bushes01_02_snow.mtl
o bushes01_02_snow
v 28.328125 25.546873 8.625003
v 26.421875 37.343750 1.421879
v 22.625000 35.781250 -0.900875
v 24.687500 23.890625 6.101566
v 17.109375 20.937500 2.998049
v 14.882813 32.968750 -3.644527
v 10.710938 31.843750 -4.374996
v 13.054688 19.703125 2.042971
v 21.203125 22.250000 4.152347
v 19.046875 34.218750 -2.671871
v 32.281250 27.156248 11.320316
v 30.421875 38.906250 3.994146
v 35.343750 29.140623 14.523442
v 33.468750 40.875000 7.128911
v -11.500000 39.343750 -4.792964
v -14.031250 30.359375 -5.445309
v 14.351563 21.890625 -2.578122
v 16.859375 30.890625 -1.564449
v -19.000000 13.632813 -3.390623
v -21.437500 5.933594 -0.881347
v 6.996094 -2.595703 0.263672
v 9.414063 5.109375 -1.703124
v -16.531250 21.859375 -4.566403
v 11.867188 13.335938 -2.384764
v 19.406250 40.406250 0.925298
v 21.968750 50.468750 5.343756
v -6.382813 59.000000 1.719734
v -8.953125 48.906250 -2.498041
v -17.734375 57.406250 -2.140618
v -17.812500 52.281250 -3.566400
v -4.941406 51.250000 -2.943353
v -4.859375 56.281250 -1.362298
v -18.031250 41.812500 -4.816401
v -18.156250 36.562500 -4.730465
v -5.289063 35.968750 -4.851559
v -5.152344 41.093750 -4.707026
v -17.921875 47.031250 -4.273432
v -5.039063 46.156250 -3.951167
v -4.800781 61.187500 0.911628
v -4.761719 65.875000 4.082038
v -17.640625 67.125000 3.142586
v -17.671875 62.375000 0.054359
v -25.984375 27.875000 -6.203122
v -23.718750 13.062500 -0.150022
v -19.937500 12.632813 -1.993162
v -22.250000 27.500000 -7.863277
v -13.078125 28.125002 -8.203121
v -10.601563 13.156250 -2.796873
v -5.023438 14.007813 -2.384764
v -7.632813 29.015625 -7.585935
v -18.109375 27.750002 -8.093747
v -15.710938 12.796875 -2.507812
v -30.859375 29.625000 -1.172848
v -28.703125 14.851562 5.105471
v -34.812500 31.515625 3.123051
v -32.625000 16.734373 9.398440
v 30.750000 38.937500 11.445318
v 18.718750 34.468750 8.382817
v 22.125000 24.171873 10.046878
v 34.125000 28.624998 13.109379
v 26.218750 13.468749 7.835939
v 38.250000 17.921873 10.898440
v 28.046875 48.843750 5.914069
v 16.015625 44.375000 2.849614
v 7.656250 29.484375 0.054600
v 11.054688 19.171875 1.716799
v 47.125000 32.562500 10.914067
v 43.718750 42.843750 9.250005
v 14.937500 8.601563 0.723146
v 51.000000 21.984373 9.921878
v 40.812500 52.906250 4.937506
v 4.738281 39.500000 -4.261714
v 2.435547 37.093750 7.246099
v 16.046875 44.875000 10.148444
v 9.796875 56.468750 8.359382
v -3.820313 48.687500 5.457036
v 5.019531 68.125000 2.013680
v -8.601563 60.375000 -0.890618
v 10.164063 25.593750 4.480472
v 23.781250 33.406250 7.386723
v 31.671875 52.812500 6.859381
v 25.421875 64.375000 5.070321
v -15.437500 41.000000 -3.632808
v -9.179688 29.421875 -1.842770
v 20.171875 76.062500 0.155405
v -20.671875 52.656250 -8.546868
v -1.916992 17.890625 -3.173826
v 38.937500 41.281250 5.527349
v 14.679688 45.156250 -1.322261
v 18.859375 46.718750 -10.921869
v 11.960938 57.312500 -12.218743
v 7.777344 55.750000 -2.611321
v 20.031250 46.562504 -22.124994
v 13.125000 57.156254 -23.406242
v 7.472656 41.875000 6.687505
v 0.571777 52.500000 5.398444
v 0.954102 65.562500 -15.671867
v -3.230469 64.062500 -6.066398
v 17.484375 32.218750 -2.195309
v 21.656250 33.781250 -11.796871
v 3.068359 66.000000 -26.359367
v 23.781250 34.156254 -22.499996
v 11.226563 29.500000 6.316409
v -9.484375 61.312500 2.443366
v 1.764648 20.625000 5.492190
v 11.906250 21.531250 6.937502
v 11.234375 34.125000 3.855473
v 1.090820 33.250000 2.412113
v 22.000000 34.531250 1.261723
v 22.671875 21.906250 4.343752
v -7.761719 19.218750 0.014216
v -8.437500 31.843750 -3.066402
v 11.484375 46.000000 -5.246089
v 1.339844 45.093750 -6.691401
v 3.291016 7.347655 2.994142
v 13.437500 8.242188 4.437501
v 22.031250 46.593750 -6.394525
v 23.953125 8.859375 3.453126
v -6.484375 6.175781 -0.876464
v -8.406250 43.906250 -10.726559
v -5.183594 29.218750 7.273441
v -6.347656 42.687500 4.128911
v -17.265625 40.968750 0.734380
v -16.093750 27.484375 3.880862
v -26.906250 38.843750 -6.605464
v -25.734375 25.359375 -3.458981
v 7.023438 30.562500 6.722660
v 5.859375 44.031250 3.576177
v -5.761719 55.656250 -4.382806
v -16.671875 53.906250 -7.777338
v -13.187500 13.484375 1.670900
v -2.271484 15.218749 5.062502
v -26.718750 51.906250 -13.874994
v -23.218750 11.484376 -4.425779
v 9.531250 16.687500 5.753908
v 6.039063 57.125000 -3.697259
v -10.148438 48.593750 -1.402338
v -2.697266 56.875000 -0.102837
v -13.101563 66.437500 -1.289055
v -20.546875 58.156250 -2.587884
v -6.218750 75.000000 1.605478
v 4.183594 65.437500 2.792977
v -28.578125 50.156250 -2.292963
v -18.171875 40.593750 -1.105464
v -24.468750 76.375000 0.662607
v -31.937500 68.062500 -0.636711
v -0.556641 39.437500 1.907232
v 6.898438 47.718750 3.207037
v -17.453125 84.812500 3.343760
v 13.929688 56.187500 5.851570
v -8.437500 31.343750 1.953129
v -39.812500 60.000000 -0.555169
v -37.531250 23.703123 9.570316
v -26.234375 21.203123 10.976566
v -23.984375 29.468750 7.554691
v -35.281250 31.968750 6.152348
v -21.250000 36.125000 0.614750
v -32.531250 38.656250 -0.789058
v -39.312500 13.843749 9.468752
v -28.015625 11.343749 10.867189
v -14.210938 16.296875 7.066408
v -11.953125 24.562500 3.646487
v -45.875000 32.156250 -0.382809
v -48.156250 23.890625 3.035159
v -9.375000 31.765625 -2.150387
v -43.312500 39.343750 -6.156245
v -50.062500 14.562499 4.097658
v -16.140625 6.960937 8.101564
v -24.156250 22.234375 4.687503
v -17.437500 14.835938 8.734377
v -7.757813 19.781250 1.699221
v -14.476563 27.187500 -2.343747
v -1.634766 10.148438 2.630860
v -11.312500 5.195312 9.664064
v -31.484375 27.375000 -2.466794
v -21.796875 32.312500 -9.499996
v 1.104492 21.671877 -9.570311
v -5.617188 29.078127 -13.609371
v -34.625000 14.234374 7.500002
v -27.921875 6.835937 11.539064
v 7.414063 12.750001 -7.656249
v -21.609375 -2.095705 13.453125
v -41.781250 20.078125 1.321291
v -12.750000 34.906254 -19.781246
v 18.296875 35.375000 -5.441401
v 16.562500 28.000000 3.853519
v 19.515625 20.671875 -1.421872
v 21.250000 28.062502 -10.710935
v 18.843750 12.500001 -7.535154
v 20.593750 19.890627 -16.828123
v 11.750000 41.875000 -1.004878
v 10.007813 34.468750 8.289067
v 9.445313 19.328123 11.898440
v 12.390625 12.007812 6.628907
v 18.000000 34.250004 -21.140621
v 15.062500 41.593750 -15.867184
v 13.023438 4.132813 0.826172
v 18.781250 26.421879 -26.890621
v 9.945313 48.375000 -11.078119
v 4.179688 26.109373 16.640629
v -11.921875 48.000000 -4.820307
v -12.445313 46.531250 -14.390619
v -14.578125 35.218750 -12.546871
v -14.054688 36.687500 -2.978512
v -11.742188 32.781254 -22.140621
v -9.617188 44.062504 -23.984369
v -8.054688 48.468750 4.714850
v -10.179688 37.156250 6.558599
v -12.148438 22.578127 -10.742186
v -11.625000 24.046875 -1.178708
v -5.246094 57.937500 -6.703118
v -5.769531 56.468754 -16.265617
v -10.375000 20.437502 -20.328123
v -3.994141 54.343754 -25.859369
v -2.431641 58.718750 2.843757
v -8.812500 24.828123 8.367191
vt 0.590820 0.667725
vt 0.002625 0.667725
vt 0.002625 0.502930
vt 0.590820 0.502930
vt 0.590820 0.172852
vt 0.002625 0.172852
vt 0.002625 0.007813
vt 0.590820 0.007813
vt 0.590820 0.337891
vt 0.002625 0.337891
vt 0.590820 0.832764
vt 0.002625 0.832764
vt 0.590820 0.997711
vt 0.002625 0.997711
vt 0.590820 0.667725
vt 0.590820 0.502930
vt 0.002625 0.502930
vt 0.002625 0.667725
vt 0.590820 0.172852
vt 0.590820 0.007813
vt 0.002625 0.007813
vt 0.002625 0.172852
vt 0.590820 0.337891
vt 0.002625 0.337891
vt 0.002625 0.832764
vt 0.002625 0.997711
vt 0.590820 0.997711
vt 0.590820 0.832764
vt 0.590820 0.667725
vt 0.590820 0.502930
vt 0.002625 0.502930
vt 0.002625 0.667725
vt 0.590820 0.172852
vt 0.590820 0.007813
vt 0.002625 0.007813
vt 0.002625 0.172852
vt 0.590820 0.337891
vt 0.002625 0.337891
vt 0.002625 0.832764
vt 0.002625 0.997711
vt 0.590820 0.997711
vt 0.590820 0.832764
vt 0.590820 0.667725
vt 0.002625 0.667725
vt 0.002625 0.502930
vt 0.590820 0.502930
vt 0.590820 0.172852
vt 0.002625 0.172852
vt 0.002625 0.007813
vt 0.590820 0.007813
vt 0.590820 0.337891
vt 0.002625 0.337891
vt 0.590820 0.832764
vt 0.002625 0.832764
vt 0.590820 0.997711
vt 0.002625 0.997711
vt 0.729980 0.165039
vt 0.729980 0.325195
vt 0.863281 0.325195
vt 0.863281 0.165039
vt 0.996582 0.325195
vt 0.996582 0.165039
vt 0.596680 0.165039
vt 0.596680 0.325195
vt 0.729980 0.485352
vt 0.863281 0.485352
vt 0.863281 0.004883
vt 0.729980 0.004883
vt 0.996582 0.485352
vt 0.996582 0.004883
vt 0.596680 0.004883
vt 0.596680 0.485352
vt 0.729980 0.165039
vt 0.729980 0.325195
vt 0.863281 0.325195
vt 0.863281 0.165039
vt 0.996582 0.325195
vt 0.996582 0.165039
vt 0.596680 0.165039
vt 0.596680 0.325195
vt 0.729980 0.485352
vt 0.863281 0.485352
vt 0.863281 0.004883
vt 0.729980 0.004883
vt 0.996582 0.485352
vt 0.996582 0.004883
vt 0.596680 0.004883
vt 0.596680 0.485352
vt 0.729980 0.165039
vt 0.863281 0.165039
vt 0.863281 0.325195
vt 0.729980 0.325195
vt 0.996582 0.165039
vt 0.996582 0.325195
vt 0.596680 0.165039
vt 0.596680 0.325195
vt 0.863281 0.485352
vt 0.729980 0.485352
vt 0.729980 0.004883
vt 0.863281 0.004883
vt 0.996582 0.485352
vt 0.996582 0.004883
vt 0.596680 0.004883
vt 0.596680 0.485352
vt 0.728516 0.656494
vt 0.862305 0.656494
vt 0.862305 0.825195
vt 0.728516 0.825195
vt 0.995605 0.825195
vt 0.995605 0.656494
vt 0.595215 0.656494
vt 0.595215 0.825195
vt 0.862305 0.993759
vt 0.728516 0.993759
vt 0.728516 0.488281
vt 0.862305 0.488281
vt 0.995605 0.993759
vt 0.995605 0.488281
vt 0.595215 0.488281
vt 0.595215 0.993759
vt 0.729980 0.165039
vt 0.729980 0.325195
vt 0.863281 0.325195
vt 0.863281 0.165039
vt 0.996582 0.325195
vt 0.996582 0.165039
vt 0.596680 0.165039
vt 0.596680 0.325195
vt 0.729980 0.485352
vt 0.863281 0.485352
vt 0.863281 0.004883
vt 0.729980 0.004883
vt 0.996582 0.485352
vt 0.996582 0.004883
vt 0.596680 0.004883
vt 0.596680 0.485352
vt 0.728516 0.656494
vt 0.862305 0.656494
vt 0.862305 0.825195
vt 0.728516 0.825195
vt 0.995605 0.825195
vt 0.995605 0.656494
vt 0.595215 0.825195
vt 0.595215 0.656494
vt 0.862305 0.993759
vt 0.728516 0.993759
vt 0.728516 0.488281
vt 0.862305 0.488281
vt 0.995605 0.993759
vt 0.995605 0.488281
vt 0.595215 0.488281
vt 0.595215 0.993759
vt 0.728516 0.656494
vt 0.728516 0.825195
vt 0.862305 0.825195
vt 0.862305 0.656494
vt 0.995605 0.825195
vt 0.995605 0.656494
vt 0.595215 0.656494
vt 0.595215 0.825195
vt 0.728516 0.993759
vt 0.862305 0.993759
vt 0.862305 0.488281
vt 0.728516 0.488281
vt 0.995605 0.993759
vt 0.995605 0.488281
vt 0.595215 0.488281
vt 0.595215 0.993759
vt 0.729980 0.165039
vt 0.863281 0.165039
vt 0.863281 0.325195
vt 0.729980 0.325195
vt 0.996582 0.325195
vt 0.996582 0.165039
vt 0.596680 0.165039
vt 0.596680 0.325195
vt 0.863281 0.485352
vt 0.729980 0.485352
vt 0.729980 0.004883
vt 0.863281 0.004883
vt 0.996582 0.485352
vt 0.996582 0.004883
vt 0.596680 0.004883
vt 0.596680 0.485352
vt 0.728516 0.656494
vt 0.728516 0.825195
vt 0.862305 0.825195
vt 0.862305 0.656494
vt 0.995605 0.825195
vt 0.995605 0.656494
vt 0.595215 0.656494
vt 0.595215 0.825195
vt 0.728516 0.993759
vt 0.862305 0.993759
vt 0.862305 0.488281
vt 0.728516 0.488281
vt 0.995605 0.993759
vt 0.995605 0.488281
vt 0.595215 0.488281
vt 0.595215 0.993759
vt 0.729980 0.165039
vt 0.863281 0.165039
vt 0.863281 0.325195
vt 0.729980 0.325195
vt 0.996582 0.325195
vt 0.996582 0.165039
vt 0.596680 0.165039
vt 0.596680 0.325195
vt 0.863281 0.485352
vt 0.729980 0.485352
vt 0.729980 0.004883
vt 0.863281 0.004883
vt 0.996582 0.485352
vt 0.996582 0.004883
vt 0.596680 0.004883
vt 0.596680 0.485352
vn -0.6214 0.3265 0.7122
vn -0.5970 0.3487 0.7224
vn -0.5667 0.3503 0.7457
vn -0.6012 0.3200 0.7323
vn -0.3391 0.3982 0.8523
vn -0.2996 0.4233 0.8550
vn -0.2784 0.4205 0.8635
vn -0.3221 0.3932 0.8612
vn -0.4708 0.3660 0.8028
vn -0.4354 0.3914 0.8107
vn -0.7024 0.2899 0.6501
vn -0.6829 0.3060 0.6633
vn -0.7696 0.2456 0.5894
vn -0.7660 0.2504 0.5921
vn -0.1421 -0.1184 0.9827
vn -0.0817 0.0306 0.9962
vn -0.1084 -0.0096 0.9941
vn -0.1551 -0.1376 0.9783
vn 0.0145 0.2164 0.9762
vn 0.0501 0.2951 0.9541
vn 0.0214 0.2521 0.9675
vn -0.0131 0.1748 0.9845
vn -0.0314 0.1259 0.9915
vn -0.0627 0.0784 0.9949
vn -0.1984 -0.2738 0.9411
vn -0.2201 -0.3441 0.9128
vn -0.2124 -0.3338 0.9184
vn -0.1900 -0.2619 0.9462
vn -0.0816 -0.3404 0.9367
vn -0.0550 -0.2093 0.9763
vn -0.0710 -0.2400 0.9682
vn -0.0900 -0.3545 0.9307
vn -0.0047 -0.0501 0.9987
vn 0.0102 0.0167 0.9998
vn -0.0052 -0.0166 0.9998
vn -0.0197 -0.0811 0.9965
vn -0.0267 -0.1235 0.9920
vn -0.0449 -0.1618 0.9858
vn -0.1062 -0.4842 0.8685
vn -0.1149 -0.5552 0.8237
vn -0.1085 -0.5442 0.8319
vn -0.0999 -0.4762 0.8736
vn 0.5894 0.3778 0.7140
vn 0.5921 0.3816 0.7098
vn 0.2627 0.3929 0.8813
vn 0.2373 0.3817 0.8933
vn -0.0742 0.3227 0.9436
vn -0.0509 0.3357 0.9406
vn -0.1263 0.3155 0.9405
vn -0.1563 0.2990 0.9414
vn 0.0169 0.3484 0.9372
vn 0.0563 0.3643 0.9296
vn 0.7472 0.3477 0.5664
vn 0.7488 0.3487 0.5637
vn 0.7611 0.3444 0.5496
vn 0.7641 0.3449 0.5452
vn -0.1426 0.2745 0.9510
vn -0.4737 0.1570 0.8666
vn -0.3680 -0.1379 0.9195
vn -0.0321 -0.0279 0.9991
vn -0.2821 -0.2967 0.9123
vn 0.0051 -0.1765 0.9843
vn -0.2207 0.4289 0.8760
vn -0.5027 0.2927 0.8134
vn -0.6019 0.0736 0.7951
vn -0.5440 -0.1660 0.8225
vn 0.1265 0.0499 0.9907
vn 0.0695 0.3020 0.9508
vn -0.4584 -0.2912 0.8397
vn 0.0944 -0.0586 0.9938
vn -0.0187 0.4336 0.9009
vn -0.5778 0.1750 0.7972
vn -0.3004 -0.1989 0.9328
vn 0.0106 -0.0267 0.9996
vn -0.1475 0.2461 0.9580
vn -0.4612 0.0801 0.8836
vn -0.2400 0.3858 0.8908
vn -0.5061 0.2186 0.8343
vn -0.1753 -0.3401 0.9239
vn 0.0798 -0.1573 0.9843
vn 0.1437 0.0754 0.9867
vn 0.0482 0.3007 0.9525
vn -0.5834 -0.0258 0.8118
vn -0.4795 -0.2650 0.8366
vn -0.0520 0.4093 0.9109
vn -0.5720 0.0865 0.8157
vn -0.3607 -0.3806 0.8515
vn 0.1363 -0.0285 0.9903
vn 0.7567 0.3396 0.5587
vn 0.8879 0.3775 0.2630
vn 0.6910 0.6815 0.2409
vn 0.5589 0.6405 0.5267
vn 0.9104 0.3981 0.1123
vn 0.7426 0.6662 0.0682
vn 0.6349 0.3216 0.7025
vn 0.4802 0.5953 0.6443
vn 0.5343 0.8103 0.2408
vn 0.4527 0.7584 0.4690
vn 0.8411 0.1471 0.5204
vn 0.9359 0.2085 0.2840
vn 0.6031 0.7906 0.1054
vn 0.9401 0.2789 0.1960
vn 0.7411 0.1552 0.6532
vn 0.4506 0.6994 0.5548
vn -0.3096 0.0163 0.9507
vn 0.0410 0.0334 0.9986
vn 0.0044 0.4164 0.9092
vn -0.3360 0.3959 0.8546
vn 0.2014 0.3981 0.8949
vn 0.2016 0.0635 0.9774
vn -0.5022 0.0346 0.8640
vn -0.4827 0.3683 0.7946
vn -0.0521 0.6085 0.7918
vn -0.3019 0.5628 0.7695
vn -0.2333 -0.2056 0.9504
vn 0.0225 -0.1494 0.9885
vn 0.1055 0.5764 0.8104
vn 0.0964 -0.0584 0.9936
vn -0.4032 -0.1665 0.8999
vn -0.3839 0.4957 0.7790
vn -0.1449 0.0290 0.9890
vn -0.1705 0.3806 0.9089
vn -0.4705 0.3246 0.8205
vn -0.4501 -0.0304 0.8925
vn -0.6203 0.2688 0.7369
vn -0.5814 -0.0390 0.8127
vn 0.0358 0.0835 0.9959
vn -0.0225 0.3886 0.9211
vn -0.1977 0.5256 0.8274
vn -0.4307 0.5095 0.7450
vn -0.3979 -0.1989 0.8956
vn -0.1475 -0.1839 0.9718
vn -0.5617 0.4456 0.6971
vn -0.4916 -0.1487 0.8580
vn 0.0029 -0.1172 0.9931
vn -0.1110 0.4843 0.8678
vn -0.1492 0.0764 0.9858
vn -0.2480 -0.0291 0.9683
vn -0.1089 -0.1491 0.9828
vn -0.0154 -0.0478 0.9987
vn -0.1553 -0.2021 0.9670
vn -0.2874 -0.0846 0.9541
vn 0.0317 -0.0000 0.9995
vn -0.0895 0.1262 0.9880
vn -0.0206 -0.2152 0.9764
vn 0.0582 -0.1221 0.9908
vn -0.2141 0.1258 0.9687
vn -0.2969 0.0252 0.9546
vn -0.0677 -0.2585 0.9636
vn -0.3229 -0.0274 0.9460
vn -0.1569 0.1736 0.9722
vn 0.0875 -0.0755 0.9933
vn -0.2791 0.2571 0.9252
vn 0.1310 0.1619 0.9781
vn 0.2103 0.4901 0.8459
vn -0.1986 0.5912 0.7816
vn 0.2392 0.6507 0.7206
vn -0.1354 0.7220 0.6786
vn -0.2889 0.0422 0.9564
vn 0.0896 -0.0032 0.9960
vn 0.3281 0.1295 0.9357
vn 0.4196 0.3675 0.8300
vn -0.3950 0.5814 0.7113
vn -0.4927 0.3213 0.8087
vn 0.4168 0.5147 0.7492
vn -0.2999 0.6595 0.6893
vn -0.4829 0.1450 0.8636
vn 0.2464 0.0570 0.9675
vn -0.0134 0.6387 0.7693
vn 0.1813 0.4092 0.8943
vn 0.4459 0.5608 0.6976
vn 0.2535 0.7808 0.5711
vn 0.5281 0.4073 0.7451
vn 0.2813 0.2941 0.9134
vn -0.1084 0.7512 0.6511
vn 0.1505 0.8556 0.4952
vn 0.5518 0.6347 0.5410
vn 0.3827 0.7987 0.4643
vn -0.1528 0.4996 0.8527
vn 0.0292 0.3334 0.9423
vn 0.6105 0.5093 0.6066
vn 0.1361 0.2986 0.9446
vn -0.2195 0.6168 0.7559
vn 0.2862 0.8385 0.4637
vn 0.8829 0.4049 0.2378
vn 0.8216 0.1683 0.5447
vn 0.9338 -0.0911 0.3460
vn 0.9898 0.1394 0.0293
vn 0.9510 -0.2306 0.2060
vn 0.9987 -0.0048 -0.0503
vn 0.7676 0.5223 0.3716
vn 0.7360 0.2845 0.6144
vn 0.7603 0.0211 0.6492
vn 0.8285 -0.1918 0.5261
vn 0.9587 0.2662 -0.1000
vn 0.8732 0.4871 0.0182
vn 0.8698 -0.2864 0.4018
vn 0.9850 0.1543 -0.0767
vn 0.7991 0.5810 0.1546
vn 0.7495 0.1271 0.6496
vn -0.9103 0.3858 0.1504
vn -0.9223 0.3457 -0.1730
vn -0.9947 -0.0031 -0.1024
vn -0.9764 0.0356 0.2132
vn -0.9601 -0.0148 -0.2791
vn -0.9008 0.2966 -0.3170
vn -0.8671 0.3700 0.3336
vn -0.9338 0.0579 0.3531
vn -0.9808 -0.1926 -0.0303
vn -0.9688 -0.1326 0.2096
vn -0.8209 0.5657 0.0779
vn -0.8453 0.5045 -0.1757
vn -0.9668 -0.1788 -0.1825
vn -0.8666 0.4283 -0.2561
vn -0.8057 0.5410 0.2411
vn -0.9557 -0.0642 0.2872
usemtl bushes01_snow
s 1
f 1/1/1 2/2/2 3/3/3
f 3/3/3 4/4/4 1/1/1
f 5/5/5 6/6/6 7/7/7
f 7/7/7 8/8/8 5/5/5
f 6/6/6 5/5/5 9/9/9
f 9/9/9 10/10/10 6/6/6
f 4/4/4 3/3/3 10/10/10
f 10/10/10 9/9/9 4/4/4
f 11/11/11 12/12/12 2/2/2
f 2/2/2 1/1/1 11/11/11
f 12/12/12 11/11/11 13/13/13
f 13/13/13 14/14/14 12/12/12
f 15/15/15 16/16/16 17/17/17
f 17/17/17 18/18/18 15/15/15
f 19/19/19 20/20/20 21/21/21
f 21/21/21 22/22/22 19/19/19
f 23/23/23 19/19/19 22/22/22
f 16/16/16 23/23/23 24/24/24
f 24/24/24 17/17/17 16/16/16
f 22/22/22 24/24/24 23/23/23
f 25/25/25 26/26/26 27/27/27
f 27/27/27 28/28/28 25/25/25
f 18/18/18 25/25/25 28/28/28
f 28/28/28 15/15/15 18/18/18
f 29/29/29 30/30/30 31/31/31
f 31/31/31 32/32/32 29/29/29
f 33/33/33 34/34/34 35/35/35
f 35/35/35 36/36/36 33/33/33
f 37/37/37 33/33/33 36/36/36
f 36/36/36 38/38/38 37/37/37
f 30/30/30 37/37/37 38/38/38
f 38/38/38 31/31/31 30/30/30
f 39/39/39 40/40/40 41/41/41
f 32/32/32 39/39/39 42/42/42
f 42/42/42 29/29/29 32/32/32
f 41/41/41 42/42/42 39/39/39
f 43/43/43 44/44/44 45/45/45
f 45/45/45 46/46/46 43/43/43
f 47/47/47 48/48/48 49/49/49
f 49/49/49 50/50/50 47/47/47
f 48/48/48 47/47/47 51/51/51
f 46/46/46 45/45/45 52/52/52
f 52/52/52 51/51/51 46/46/46
f 51/51/51 52/52/52 48/48/48
f 53/53/53 54/54/54 44/44/44
f 44/44/44 43/43/43 53/53/53
f 54/54/54 53/53/53 55/55/55
f 55/55/55 56/56/56 54/54/54
f 57/57/57 58/58/58 59/59/59
f 59/59/59 60/60/60 57/57/57
f 60/60/60 59/59/59 61/61/61
f 61/61/61 62/62/62 60/60/60
f 58/58/58 57/57/57 63/63/63
f 63/63/63 64/64/64 58/58/58
f 65/65/65 58/58/58 64/64/64
f 66/66/66 59/59/59 58/58/58
f 58/58/58 65/65/65 66/66/66
f 67/67/67 60/60/60 62/62/62
f 68/68/68 57/57/57 60/60/60
f 60/60/60 67/67/67 68/68/68
f 69/69/69 61/61/61 59/59/59
f 59/59/59 66/66/66 69/69/69
f 62/62/62 70/70/70 67/67/67
f 71/71/71 63/63/63 57/57/57
f 57/57/57 68/68/68 71/71/71
f 64/64/64 72/72/72 65/65/65
f 73/73/73 74/74/74 75/75/75
f 75/75/75 76/76/76 73/73/73
f 76/76/76 75/75/75 77/77/77
f 77/77/77 78/78/78 76/76/76
f 74/74/74 73/73/73 79/79/79
f 79/79/79 80/80/80 74/74/74
f 81/81/81 74/74/74 80/80/80
f 82/82/82 75/75/75 74/74/74
f 74/74/74 81/81/81 82/82/82
f 83/83/83 76/76/76 78/78/78
f 76/76/76 83/83/83 84/84/84
f 84/84/84 73/73/73 76/76/76
f 85/85/85 77/77/77 75/75/75
f 75/75/75 82/82/82 85/85/85
f 78/78/78 86/86/86 83/83/83
f 87/87/87 79/79/79 73/73/73
f 73/73/73 84/84/84 87/87/87
f 80/80/80 88/88/88 81/81/81
f 89/89/89 90/90/90 91/91/91
f 91/91/91 92/92/92 89/89/89
f 90/90/90 93/93/93 94/94/94
f 94/94/94 91/91/91 90/90/90
f 95/95/95 89/89/89 92/92/92
f 92/92/92 96/96/96 95/95/95
f 92/92/92 91/91/91 97/97/97
f 97/97/97 98/98/98 92/92/92
f 96/96/96 92/92/92 98/98/98
f 90/90/90 89/89/89 99/99/99
f 93/93/93 90/90/90 100/100/100
f 99/99/99 100/100/100 90/90/90
f 101/101/101 97/97/97 91/91/91
f 91/91/91 94/94/94 101/101/101
f 100/100/100 102/102/102 93/93/93
f 103/103/103 99/99/99 89/89/89
f 89/89/89 95/95/95 103/103/103
f 98/98/98 104/104/104 96/96/96
f 105/105/105 106/106/106 107/107/107
f 107/107/107 108/108/108 105/105/105
f 109/109/109 107/107/107 106/106/106
f 106/106/106 110/110/110 109/109/109
f 111/111/111 105/105/105 108/108/108
f 108/108/108 112/112/112 111/111/111
f 108/108/108 107/107/107 113/113/113
f 112/112/112 108/108/108 114/114/114
f 113/113/113 114/114/114 108/108/108
f 106/106/106 105/105/105 115/115/115
f 115/115/115 116/116/116 106/106/106
f 110/110/110 106/106/106 116/116/116
f 117/117/117 113/113/113 107/107/107
f 107/107/107 109/109/109 117/117/117
f 116/116/116 118/118/118 110/110/110
f 119/119/119 115/115/115 105/105/105
f 105/105/105 111/111/111 119/119/119
f 114/114/114 120/120/120 112/112/112
f 121/121/121 122/122/122 123/123/123
f 123/123/123 124/124/124 121/121/121
f 124/124/124 123/123/123 125/125/125
f 125/125/125 126/126/126 124/124/124
f 122/122/122 121/121/121 127/127/127
f 127/127/127 128/128/128 122/122/122
f 129/129/129 122/122/122 128/128/128
f 130/130/130 123/123/123 122/122/122
f 122/122/122 129/129/129 130/130/130
f 131/131/131 124/124/124 126/126/126
f 132/132/132 121/121/121 124/124/124
f 124/124/124 131/131/131 132/132/132
f 133/133/133 125/125/125 123/123/123
f 123/123/123 130/130/130 133/133/133
f 126/126/126 134/134/134 131/131/131
f 121/121/121 132/132/132 135/135/135
f 135/135/135 127/127/127 121/121/121
f 128/128/128 136/136/136 129/129/129
f 137/137/137 138/138/138 139/139/139
f 139/139/139 140/140/140 137/137/137
f 141/141/141 139/139/139 138/138/138
f 138/138/138 142/142/142 141/141/141
f 140/140/140 143/143/143 144/144/144
f 144/144/144 137/137/137 140/140/140
f 140/140/140 139/139/139 145/145/145
f 145/145/145 146/146/146 140/140/140
f 143/143/143 140/140/140 146/146/146
f 138/138/138 137/137/137 147/147/147
f 142/142/142 138/138/138 148/148/148
f 147/147/147 148/148/148 138/138/138
f 139/139/139 141/141/141 149/149/149
f 149/149/149 145/145/145 139/139/139
f 148/148/148 150/150/150 142/142/142
f 137/137/137 144/144/144 151/151/151
f 151/151/151 147/147/147 137/137/137
f 146/146/146 152/152/152 143/143/143
f 153/153/153 154/154/154 155/155/155
f 155/155/155 156/156/156 153/153/153
f 156/156/156 155/155/155 157/157/157
f 157/157/157 158/158/158 156/156/156
f 154/154/154 153/153/153 159/159/159
f 159/159/159 160/160/160 154/154/154
f 161/161/161 154/154/154 160/160/160
f 154/154/154 161/161/161 162/162/162
f 162/162/162 155/155/155 154/154/154
f 163/163/163 156/156/156 158/158/158
f 164/164/164 153/153/153 156/156/156
f 156/156/156 163/163/163 164/164/164
f 155/155/155 162/162/162 165/165/165
f 165/165/165 157/157/157 155/155/155
f 158/158/158 166/166/166 163/163/163
f 167/167/167 159/159/159 153/153/153
f 153/153/153 164/164/164 167/167/167
f 160/160/160 168/168/168 161/161/161
f 169/169/169 170/170/170 171/171/171
f 171/171/171 172/172/172 169/169/169
f 173/173/173 171/171/171 170/170/170
f 170/170/170 174/174/174 173/173/173
f 175/175/175 169/169/169 172/172/172
f 172/172/172 176/176/176 175/175/175
f 172/172/172 171/171/171 177/177/177
f 177/177/177 178/178/178 172/172/172
f 176/176/176 172/172/172 178/178/178
f 170/170/170 169/169/169 179/179/179
f 174/174/174 170/170/170 180/180/180
f 179/179/179 180/180/180 170/170/170
f 181/181/181 177/177/177 171/171/171
f 171/171/171 173/173/173 181/181/181
f 180/180/180 182/182/182 174/174/174
f 183/183/183 179/179/179 169/169/169
f 169/169/169 175/175/175 183/183/183
f 178/178/178 184/184/184 176/176/176
f 185/185/185 186/186/186 187/187/187
f 187/187/187 188/188/188 185/185/185
f 188/188/188 187/187/187 189/189/189
f 189/189/189 190/190/190 188/188/188
f 186/186/186 185/185/185 191/191/191
f 191/191/191 192/192/192 186/186/186
f 193/193/193 186/186/186 192/192/192
f 194/194/194 187/187/187 186/186/186
f 186/186/186 193/193/193 194/194/194
f 195/195/195 188/188/188 190/190/190
f 196/196/196 185/185/185 188/188/188
f 188/188/188 195/195/195 196/196/196
f 197/197/197 189/189/189 187/187/187
f 187/187/187 194/194/194 197/197/197
f 190/190/190 198/198/198 195/195/195
f 199/199/199 191/191/191 185/185/185
f 185/185/185 196/196/196 199/199/199
f 192/192/192 200/200/200 193/193/193
f 201/201/201 202/202/202 203/203/203
f 203/203/203 204/204/204 201/201/201
f 205/205/205 203/203/203 202/202/202
f 202/202/202 206/206/206 205/205/205
f 207/207/207 201/201/201 204/204/204
f 204/204/204 208/208/208 207/207/207
f 204/204/204 203/203/203 209/209/209
f 208/208/208 204/204/204 210/210/210
f 209/209/209 210/210/210 204/204/204
f 202/202/202 201/201/201 211/211/211
f 211/211/211 212/212/212 202/202/202
f 206/206/206 202/202/202 212/212/212
f 203/203/203 205/205/205 213/213/213
f 213/213/213 209/209/209 203/203/203
f 212/212/212 214/214/214 206/206/206
f 215/215/215 211/211/211 201/201/201
f 201/201/201 207/207/207 215/215/215
f 210/210/210 216/216/216 208/208/208
