# Blender v2.92.0 OBJ File: ''
# www.blender.org
mtllib bushes01_01.mtl
o bushes01_01
v -10.773438 24.062500 -0.618649
v 18.640625 28.468750 -1.291013
v 17.468750 37.406250 -3.468745
v -11.937500 32.906250 -2.417965
v -7.265625 -1.291992 -0.573730
v 22.140625 2.806641 0.190918
v 20.984375 11.148438 0.639649
v -8.429688 6.937500 0.404054
v 19.812500 19.718750 0.112246
v -9.601563 15.390625 0.355715
v 15.140625 55.687500 -9.749993
v -14.273438 51.062500 -8.093744
v -13.109375 41.906250 -4.945308
v 16.312500 46.500000 -6.324214
v -8.671875 31.187500 -3.685543
v -11.359375 34.156250 -7.953121
v -26.359375 22.812500 -7.203122
v -23.687500 19.906250 -2.671873
v 1.910156 17.718750 -0.198118
v -1.672852 22.406250 -0.681149
v -16.703125 11.242188 0.858399
v -13.148438 6.660156 1.689454
v -5.335938 27.109375 -1.510739
v -20.359375 15.882813 -0.250730
v -28.656250 25.078127 -13.046872
v -13.687500 36.500000 -13.554684
v -31.156250 27.593752 -18.671871
v -16.187500 39.031254 -19.046871
v 11.625000 29.312500 1.917972
v 15.289063 31.343750 3.912113
v 11.554688 45.875000 -2.148432
v 7.875000 43.875000 -3.957026
v -2.423828 24.453125 -0.659177
v 2.236328 26.125000 0.464603
v -1.621094 40.843750 -4.882808
v -6.328125 39.250000 -5.714839
v 7.054688 27.781250 1.328128
v 3.246094 42.437500 -4.253901
v 15.734375 49.500000 3.302740
v 19.453125 35.093750 9.664067
v 18.375000 52.750000 8.953132
v 22.062500 38.281250 15.281255
v 23.812500 50.218750 11.632819
v 14.179688 49.031250 6.683600
v 12.601563 42.000000 11.429693
v 22.234375 43.187496 16.375006
v 27.250000 55.218750 4.519537
v 17.625000 54.031250 -0.429682
v 12.898438 32.968750 13.804692
v 22.531250 34.156246 18.750004
v 36.250000 48.343750 13.007819
v 34.687500 41.343746 17.750006
v 5.699219 37.875000 3.025396
v 7.273438 44.906250 -1.719722
v 39.093750 54.000000 6.664069
v 10.101563 50.562500 -8.046869
v 5.375000 29.515625 6.183598
v 34.375000 32.937496 20.890629
v 19.078125 40.843750 2.169927
v 6.941406 37.500000 2.089849
v 9.539063 28.046875 3.968753
v 21.671875 31.406250 4.046879
v 17.125000 49.656250 -3.814447
v 4.980469 46.281250 -3.894526
v 12.773438 17.968750 1.739260
v 24.906250 21.328125 1.819339
v 32.187500 43.218750 -3.947261
v 34.781250 33.781250 -2.068355
v -1.677734 23.765625 -2.093747
v -4.273438 33.187500 -3.972652
v 30.015625 52.250000 -8.593743
v -6.445313 42.187500 -8.593745
v 1.344727 13.890625 -2.964842
v 37.812500 23.921875 -2.964841
v -11.406250 55.625000 -6.707024
v -9.625000 48.718750 0.651373
v 2.496094 50.125000 -0.966303
v 0.714355 57.031250 -8.328118
v -13.578125 59.812504 -16.531242
v -1.451172 61.218754 -18.156242
v 3.892578 40.500000 3.929693
v -8.226563 39.093750 5.546880
v -24.062500 50.531250 -8.445308
v -22.281250 43.593750 -1.083979
v 14.101563 47.812500 -5.929682
v 12.320313 54.750000 -13.289057
v -26.109375 55.562504 -17.499994
v 10.273438 59.781254 -22.343742
v 15.617188 39.062500 -0.258540
v -20.750000 34.812500 4.585942
v -0.534180 46.437500 1.168950
v -13.617188 45.875000 -3.082026
v -14.507813 35.812500 0.994633
v -1.422852 36.375000 5.246099
v 2.162109 54.781250 -6.765618
v -10.921875 54.218750 -11.015618
v -13.585938 24.031250 1.210941
v -0.505371 24.609375 5.460941
v 15.273438 44.406250 -0.404048
v 14.390625 34.343750 3.671879
v -24.953125 32.750000 -8.874996
v -24.062500 42.812500 -12.953120
v 17.375000 53.312500 -7.085932
v -21.968750 51.718754 -19.609369
v -24.640625 21.531250 -7.386717
v 14.718750 23.125000 5.144534
v -3.144531 30.093750 -0.229976
v -11.140625 30.046875 2.636723
v -9.757813 20.640625 6.359377
v -1.765625 20.687500 3.492190
v 3.869141 29.218750 -5.851560
v 5.246094 19.812500 -2.128904
v -18.734375 19.703125 6.472658
v -20.125000 29.109375 2.750004
v -5.863281 38.250000 -7.699214
v -13.859375 38.218750 -4.832026
v -9.718750 10.015624 6.343751
v -1.719727 10.054688 3.478517
v 1.460938 37.656250 -12.453120
v 5.601563 9.476563 -1.276366
v -18.390625 9.359374 7.324220
v -22.531250 37.562500 -3.853512
v -20.484375 41.031250 -10.898434
v -27.218750 36.531250 -7.308590
v -20.406250 31.500000 -0.865719
v -13.679688 36.000000 -4.453121
v -13.585938 43.406254 -16.859369
v -6.773438 38.375000 -10.414059
v -26.984375 24.843750 0.353274
v -33.781250 29.906250 -6.089841
v -27.062500 43.187504 -20.562494
v -33.812500 38.687504 -16.968746
v -13.382813 23.546875 2.359378
v -6.644531 28.046875 -1.229489
v -20.218750 46.218754 -25.781244
v 0.205078 31.093750 -6.441402
v -20.000000 17.578125 4.324221
v -40.437500 32.718750 -15.007810
v -28.312500 25.203125 -7.218747
v -28.046875 35.843750 -9.093746
v -28.203125 34.343754 -17.499996
v -28.468750 23.718752 -15.632811
v -24.562500 26.234375 1.207034
v -24.296875 36.875000 -0.666012
v -24.796875 32.437504 -25.906246
v -25.062500 21.796879 -24.046873
v -23.171875 13.890626 -5.332029
v -23.328125 12.406252 -13.749998
v -22.734375 44.343754 -19.359369
v -22.562500 45.812500 -10.953119
v -20.593750 15.062500 3.089846
v -20.000000 47.000000 -2.527339
v -20.500000 42.562504 -27.781244
v -21.078125 10.625003 -22.156248
v -29.515625 27.890625 1.340823
v -26.906250 20.515625 6.105472
v -15.929688 24.156250 5.695316
v -18.546875 31.515625 0.933109
v -31.984375 33.187500 -6.687496
v -21.000000 36.812500 -7.093746
v -13.164063 14.734374 7.195315
v -24.140625 11.101562 7.601564
v -40.250000 21.156250 -3.177731
v -37.625000 13.789063 1.584963
v -4.730469 24.781250 0.533206
v -7.343750 32.156250 -4.230465
v -42.750000 27.125002 -10.140622
v -9.851563 38.125000 -11.179684
v -2.011719 16.046875 3.113283
v -34.906250 5.039062 4.144531
v 2.808594 29.796875 3.888676
v -0.844727 22.218750 5.945316
v 9.070313 17.734375 7.058596
v 12.726563 25.312500 5.000003
v 6.105469 36.562500 -1.715816
v 16.015625 32.093750 -0.603512
v 5.058594 9.374999 5.566407
v -4.855469 13.859374 4.457032
v -7.644531 33.062500 -2.576168
v -11.296875 25.515625 -0.518552
v 18.453125 12.101563 3.001954
v 22.109375 19.671875 0.945803
v -4.234375 40.125000 -7.027339
v 25.531250 26.703125 -3.484372
v 14.570313 4.000000 2.687500
v -15.195313 17.406250 -0.855467
v -0.109985 38.250000 -0.406245
v 5.683594 36.062500 3.142582
v 9.867188 43.125000 0.634771
v 4.074219 45.281250 -2.914057
v -5.207031 39.000000 -5.968745
v -1.024414 46.031250 -8.476558
v 16.343750 39.500000 2.167974
v 12.171875 32.468750 4.675785
v -3.349609 29.250000 -0.639156
v 2.441406 27.078125 2.910159
v 14.992188 48.218750 -4.605464
v 9.195313 50.375000 -8.156244
v -8.664063 30.437500 -5.570309
v 3.882813 51.562500 -13.085933
v 21.250000 45.031250 -2.439447
v 8.710938 23.906250 5.078128
v 24.796875 37.000000 -11.179684
v 21.234375 39.437500 -2.962886
v 19.562500 28.703125 -0.531735
v 23.109375 26.281252 -8.749997
v 25.359375 35.093754 -20.828121
v 23.687500 24.343752 -18.390621
v 13.023438 31.593750 6.253910
v 14.703125 42.343750 3.820318
v 22.406250 48.406250 -15.562494
v 18.859375 50.843750 -7.343744
v 13.835938 18.609375 -0.044706
v 17.390625 16.187502 -8.257812
v 23.921875 46.343754 -24.749994
v 18.906250 14.117190 -17.453123
v 8.234375 21.359375 7.191408
v 13.257813 53.562500 -0.107416
vt 0.002625 0.502930
vt 0.590820 0.502930
vt 0.590820 0.667725
vt 0.002625 0.667725
vt 0.002625 0.007813
vt 0.590820 0.007813
vt 0.590820 0.172852
vt 0.002625 0.172852
vt 0.590820 0.337891
vt 0.002625 0.337891
vt 0.590820 0.997711
vt 0.002625 0.997711
vt 0.002625 0.832764
vt 0.590820 0.832764
vt 0.002625 0.502930
vt 0.002625 0.667725
vt 0.590820 0.667725
vt 0.590820 0.502930
vt 0.002625 0.007813
vt 0.002625 0.172852
vt 0.590820 0.172852
vt 0.590820 0.007813
vt 0.002625 0.337891
vt 0.590820 0.337891
vt 0.590820 0.832764
vt 0.002625 0.832764
vt 0.590820 0.997711
vt 0.002625 0.997711
vt 0.002625 0.502930
vt 0.002625 0.667725
vt 0.590820 0.667725
vt 0.590820 0.502930
vt 0.002625 0.007813
vt 0.002625 0.172852
vt 0.590820 0.172852
vt 0.590820 0.007813
vt 0.002625 0.337891
vt 0.590820 0.337891
vt 0.590820 0.832764
vt 0.002625 0.832764
vt 0.590820 0.997711
vt 0.002625 0.997711
vt 0.862305 0.825195
vt 0.862305 0.656494
vt 0.728516 0.656494
vt 0.728516 0.825195
vt 0.995605 0.825195
vt 0.995605 0.656494
vt 0.595215 0.656494
vt 0.595215 0.825195
vt 0.862305 0.993759
vt 0.728516 0.993759
vt 0.728516 0.488281
vt 0.862305 0.488281
vt 0.995605 0.993759
vt 0.995605 0.488281
vt 0.595215 0.488281
vt 0.595215 0.993759
vt 0.862305 0.825195
vt 0.862305 0.656494
vt 0.728516 0.656494
vt 0.728516 0.825195
vt 0.995605 0.825195
vt 0.995605 0.656494
vt 0.595215 0.656494
vt 0.595215 0.825195
vt 0.862305 0.993759
vt 0.728516 0.993759
vt 0.728516 0.488281
vt 0.862305 0.488281
vt 0.995605 0.993759
vt 0.995605 0.488281
vt 0.595215 0.488281
vt 0.595215 0.993759
vt 0.863281 0.325195
vt 0.729980 0.325195
vt 0.729980 0.165039
vt 0.863281 0.165039
vt 0.996582 0.325195
vt 0.996582 0.165039
vt 0.596680 0.165039
vt 0.596680 0.325195
vt 0.863281 0.485352
vt 0.729980 0.485352
vt 0.729980 0.004883
vt 0.863281 0.004883
vt 0.996582 0.485352
vt 0.996582 0.004883
vt 0.596680 0.004883
vt 0.596680 0.485352
vt 0.862305 0.825195
vt 0.862305 0.656494
vt 0.728516 0.656494
vt 0.728516 0.825195
vt 0.995605 0.825195
vt 0.995605 0.656494
vt 0.595215 0.656494
vt 0.595215 0.825195
vt 0.862305 0.993759
vt 0.728516 0.993759
vt 0.728516 0.488281
vt 0.862305 0.488281
vt 0.995605 0.993759
vt 0.995605 0.488281
vt 0.595215 0.488281
vt 0.595215 0.993759
vt 0.863281 0.325195
vt 0.729980 0.325195
vt 0.729980 0.165039
vt 0.863281 0.165039
vt 0.996582 0.325195
vt 0.996582 0.165039
vt 0.596680 0.165039
vt 0.596680 0.325195
vt 0.863281 0.485352
vt 0.729980 0.485352
vt 0.729980 0.004883
vt 0.863281 0.004883
vt 0.996582 0.485352
vt 0.996582 0.004883
vt 0.596680 0.004883
vt 0.596680 0.485352
vt 0.863281 0.325195
vt 0.729980 0.325195
vt 0.729980 0.165039
vt 0.863281 0.165039
vt 0.996582 0.325195
vt 0.996582 0.165039
vt 0.596680 0.165039
vt 0.596680 0.325195
vt 0.863281 0.485352
vt 0.729980 0.485352
vt 0.729980 0.004883
vt 0.863281 0.004883
vt 0.996582 0.485352
vt 0.996582 0.004883
vt 0.596680 0.004883
vt 0.596680 0.485352
vt 0.862305 0.825195
vt 0.862305 0.656494
vt 0.728516 0.656494
vt 0.728516 0.825195
vt 0.995605 0.825195
vt 0.995605 0.656494
vt 0.595215 0.656494
vt 0.595215 0.825195
vt 0.862305 0.993759
vt 0.728516 0.993759
vt 0.728516 0.488281
vt 0.862305 0.488281
vt 0.995605 0.993759
vt 0.995605 0.488281
vt 0.595215 0.488281
vt 0.595215 0.993759
vt 0.862305 0.825195
vt 0.728516 0.825195
vt 0.728516 0.656494
vt 0.862305 0.656494
vt 0.995605 0.825195
vt 0.995605 0.656494
vt 0.595215 0.656494
vt 0.595215 0.825195
vt 0.862305 0.993759
vt 0.728516 0.993759
vt 0.728516 0.488281
vt 0.862305 0.488281
vt 0.995605 0.993759
vt 0.995605 0.488281
vt 0.595215 0.488281
vt 0.595215 0.993759
vt 0.862305 0.825195
vt 0.728516 0.825195
vt 0.728516 0.656494
vt 0.862305 0.656494
vt 0.995605 0.825195
vt 0.995605 0.656494
vt 0.595215 0.656494
vt 0.595215 0.825195
vt 0.862305 0.993759
vt 0.728516 0.993759
vt 0.728516 0.488281
vt 0.862305 0.488281
vt 0.995605 0.993759
vt 0.995605 0.488281
vt 0.595215 0.488281
vt 0.595215 0.993759
vt 0.863281 0.325195
vt 0.729980 0.325195
vt 0.729980 0.165039
vt 0.863281 0.165039
vt 0.996582 0.325195
vt 0.996582 0.165039
vt 0.596680 0.165039
vt 0.596680 0.325195
vt 0.863281 0.485352
vt 0.729980 0.485352
vt 0.729980 0.004883
vt 0.863281 0.004883
vt 0.996582 0.485352
vt 0.996582 0.004883
vt 0.596680 0.004883
vt 0.596680 0.485352
vt 0.863281 0.325195
vt 0.729980 0.325195
vt 0.729980 0.165039
vt 0.863281 0.165039
vt 0.996582 0.325195
vt 0.996582 0.165039
vt 0.596680 0.165039
vt 0.596680 0.325195
vt 0.863281 0.485352
vt 0.729980 0.485352
vt 0.729980 0.004883
vt 0.863281 0.004883
vt 0.996582 0.485352
vt 0.996582 0.004883
vt 0.596680 0.004883
vt 0.596680 0.485352
vn 0.0035 0.1592 0.9872
vn -0.0120 0.1925 0.9812
vn -0.0106 0.2642 0.9644
vn 0.0022 0.2376 0.9714
vn 0.0040 -0.1061 0.9943
vn -0.0181 -0.0562 0.9983
vn -0.0150 -0.0036 0.9999
vn 0.0059 -0.0505 0.9987
vn -0.0136 0.1037 0.9945
vn 0.0047 0.0634 0.9980
vn -0.0075 0.3431 0.9393
vn 0.0019 0.3258 0.9454
vn 0.0012 0.2998 0.9540
vn -0.0094 0.3210 0.9470
vn -0.3111 0.4794 0.8206
vn -0.4688 0.6516 0.5963
vn -0.4741 0.6711 0.5700
vn -0.3230 0.5105 0.7969
vn 0.0123 0.1265 0.9919
vn -0.0083 0.1375 0.9905
vn -0.0237 0.1805 0.9833
vn -0.0049 0.1744 0.9847
vn -0.1118 0.2487 0.9621
vn -0.1256 0.2849 0.9503
vn -0.5090 0.6952 0.5075
vn -0.5086 0.6864 0.5197
vn -0.5032 0.6811 0.5320
vn -0.5026 0.6756 0.5394
vn -0.3869 0.2617 0.8842
vn -0.6931 0.1228 0.7103
vn -0.6824 0.1208 0.7210
vn -0.3556 0.2618 0.8972
vn -0.2996 0.2518 0.9202
vn -0.2825 0.2674 0.9213
vn -0.2381 0.2685 0.9334
vn -0.2502 0.2531 0.9345
vn -0.2382 0.2985 0.9242
vn -0.1904 0.2999 0.9348
vn -0.8573 0.0009 0.5149
vn -0.8623 0.0013 0.5064
vn -0.8973 -0.0371 0.4399
vn -0.8986 -0.0375 0.4371
vn -0.2046 0.7145 0.6690
vn -0.5751 0.6754 0.4616
vn -0.6357 0.3763 0.6740
vn -0.2610 0.4188 0.8698
vn -0.1645 0.8430 0.5121
vn -0.5058 0.7908 0.3447
vn -0.6136 0.1815 0.7685
vn -0.2734 0.2583 0.9266
vn 0.0155 0.6579 0.7529
vn -0.0593 0.4354 0.8983
vn -0.8014 0.3469 0.4872
vn -0.7272 0.5935 0.3447
vn 0.0140 0.7743 0.6326
vn -0.6477 0.6883 0.3267
vn -0.7776 0.1991 0.5964
vn -0.1315 0.3521 0.9267
vn 0.0931 0.3943 0.9143
vn -0.3210 0.2933 0.9005
vn -0.2136 -0.0556 0.9753
vn 0.1965 0.0532 0.9791
vn 0.0236 0.5661 0.8240
vn -0.3425 0.4520 0.8236
vn -0.1172 -0.2502 0.9611
vn 0.2395 -0.1115 0.9645
vn 0.3295 0.3926 0.8587
vn 0.3768 0.1271 0.9175
vn -0.4480 -0.0859 0.8899
vn -0.4988 0.2006 0.8432
vn 0.2465 0.5301 0.8113
vn -0.4556 0.3175 0.8316
vn -0.3491 -0.2414 0.9055
vn 0.3439 0.0204 0.9388
vn -0.1862 0.7957 0.5764
vn -0.1401 0.5782 0.8037
vn 0.2149 0.6228 0.7523
vn 0.1680 0.8406 0.5150
vn -0.1946 0.8862 0.4204
vn 0.1223 0.9137 0.3875
vn 0.2103 0.4669 0.8590
vn -0.1085 0.4569 0.8829
vn -0.3690 0.7099 0.5999
vn -0.3044 0.5493 0.7782
vn 0.4071 0.6320 0.6594
vn 0.3383 0.8098 0.4794
vn -0.3552 0.8027 0.4791
vn 0.2582 0.8675 0.4251
vn 0.3878 0.5085 0.7688
vn -0.2333 0.4989 0.8347
vn -0.0846 0.5385 0.8384
vn -0.4856 0.5312 0.6942
vn -0.5071 0.1898 0.8407
vn -0.1043 0.2029 0.9736
vn -0.0729 0.6995 0.7109
vn -0.4381 0.6726 0.5964
vn -0.4687 -0.0205 0.8831
vn -0.1061 0.0332 0.9938
vn 0.1473 0.4733 0.8685
vn 0.0994 0.2212 0.9701
vn -0.7032 0.1960 0.6834
vn -0.6557 0.4713 0.5898
vn 0.1241 0.6133 0.7800
vn -0.5808 0.5705 0.5807
vn -0.6606 0.0285 0.7502
vn 0.0334 0.1310 0.9908
vn 0.4239 0.5350 0.7308
vn 0.1227 0.5403 0.8325
vn 0.1763 0.2077 0.9622
vn 0.4831 0.1983 0.8528
vn 0.5787 0.4989 0.6451
vn 0.6094 0.2046 0.7660
vn -0.0115 0.2242 0.9745
vn -0.0222 0.5200 0.8539
vn 0.3428 0.6938 0.6333
vn 0.1149 0.6740 0.7297
vn 0.2239 -0.0005 0.9746
vn 0.4683 0.0250 0.8832
vn 0.4819 0.6516 0.5859
vn 0.5474 0.0875 0.8323
vn 0.0634 0.0365 0.9973
vn 0.0406 0.6224 0.7816
vn -0.1028 0.8586 0.5022
vn -0.3496 0.6990 0.6238
vn -0.1147 0.5302 0.8401
vn 0.1400 0.6883 0.7118
vn 0.0492 0.9072 0.4177
vn 0.2435 0.7492 0.6159
vn -0.2704 0.4261 0.8634
vn -0.4507 0.5979 0.6629
vn -0.2530 0.8937 0.3704
vn -0.4272 0.7615 0.4875
vn 0.0518 0.4142 0.9087
vn 0.2340 0.5625 0.7930
vn -0.1144 0.9388 0.3250
vn 0.2616 0.6438 0.7191
vn -0.0972 0.3454 0.9334
vn -0.4576 0.6916 0.5588
vn -0.9646 -0.1404 0.2231
vn -0.9456 0.2812 0.1635
vn -0.9576 0.2061 -0.2011
vn -0.9682 -0.2125 -0.1320
vn -0.9066 -0.0864 0.4131
vn -0.8971 0.2889 0.3343
vn -0.9081 0.1287 -0.3984
vn -0.9250 -0.2395 -0.2951
vn -0.9030 -0.3749 0.2096
vn -0.9150 -0.3982 -0.0653
vn -0.8747 0.4437 -0.1951
vn -0.8785 0.4675 0.0984
vn -0.8818 -0.3048 0.3600
vn -0.8855 0.4140 0.2110
vn -0.8613 0.3592 -0.3592
vn -0.9189 -0.3557 -0.1707
vn -0.3709 0.5652 0.7369
vn -0.2758 0.2688 0.9228
vn 0.1256 0.4057 0.9053
vn 0.0302 0.7065 0.7071
vn -0.3995 0.7037 0.5875
vn -0.0322 0.8138 0.5803
vn 0.1530 0.1990 0.9680
vn -0.2201 0.1139 0.9688
vn -0.5624 0.4169 0.7141
vn -0.4613 0.2074 0.8627
vn 0.3448 0.4799 0.8067
vn 0.2335 0.7119 0.6624
vn -0.5641 0.5515 0.6145
vn 0.1351 0.7741 0.6184
vn 0.3457 0.3120 0.8850
vn -0.3774 0.1501 0.9138
vn -0.0991 0.4862 0.8682
vn -0.2604 0.1719 0.9501
vn 0.1265 0.0019 0.9920
vn 0.2933 0.3219 0.9002
vn 0.0039 0.6360 0.7717
vn 0.3458 0.4681 0.8132
vn 0.0013 -0.1762 0.9843
vn -0.3278 0.0151 0.9446
vn -0.3274 0.5154 0.7919
vn -0.4212 0.2667 0.8669
vn 0.3593 -0.0715 0.9305
vn 0.4582 0.1983 0.8665
vn -0.2204 0.6336 0.7416
vn 0.4350 0.3188 0.8421
vn 0.2352 -0.2080 0.9494
vn -0.4076 0.1586 0.8993
vn -0.5191 0.3764 0.7674
vn -0.2645 0.2706 0.9256
vn -0.0925 0.5693 0.8169
vn -0.3509 0.6751 0.6489
vn -0.6370 0.4289 0.6405
vn -0.4703 0.6874 0.5535
vn 0.0497 0.4646 0.8841
vn -0.1332 0.2160 0.9673
vn -0.5633 0.1820 0.8059
vn -0.3536 0.1276 0.9266
vn -0.0079 0.7214 0.6925
vn -0.2333 0.7843 0.5748
vn -0.6584 0.2521 0.7092
vn -0.3411 0.7610 0.5519
vn 0.1024 0.6266 0.7726
vn -0.2555 0.1485 0.9553
vn 0.9718 0.0738 0.2239
vn 0.8484 0.1655 0.5028
vn 0.7960 -0.1842 0.5766
vn 0.9159 -0.2787 0.2890
vn 0.9983 0.0084 0.0575
vn 0.9450 -0.2960 0.1388
vn 0.6948 -0.1004 0.7122
vn 0.7611 0.1981 0.6176
vn 0.9408 0.2734 0.2006
vn 0.8475 0.3160 0.4264
vn 0.7302 -0.3869 0.5632
vn 0.8394 -0.4324 0.3291
vn 0.9776 0.1973 0.0730
vn 0.8886 -0.3939 0.2351
vn 0.6624 -0.2996 0.6867
vn 0.8075 0.2841 0.5169
usemtl bushes01
s 1
f 1/1/1 2/2/2 3/3/3
f 3/3/3 4/4/4 1/1/1
f 5/5/5 6/6/6 7/7/7
f 7/7/7 8/8/8 5/5/5
f 8/8/8 7/7/7 9/9/9
f 9/9/9 10/10/10 8/8/8
f 10/10/10 9/9/9 2/2/2
f 2/2/2 1/1/1 10/10/10
f 11/11/11 12/12/12 13/13/13
f 14/14/14 13/13/13 4/4/4
f 4/4/4 3/3/3 14/14/14
f 13/13/13 14/14/14 11/11/11
f 15/15/15 16/16/16 17/17/17
f 17/17/17 18/18/18 15/15/15
f 19/19/19 20/20/20 21/21/21
f 21/21/21 22/22/22 19/19/19
f 23/23/23 15/15/15 18/18/18
f 24/24/24 21/21/21 20/20/20
f 20/20/20 23/23/23 24/24/24
f 18/18/18 24/24/24 23/23/23
f 25/25/25 17/17/17 16/16/16
f 16/16/16 26/26/26 25/25/25
f 27/27/27 25/25/25 26/26/26
f 26/26/26 28/28/28 27/27/27
f 29/29/29 30/30/30 31/31/31
f 31/31/31 32/32/32 29/29/29
f 33/33/33 34/34/34 35/35/35
f 35/35/35 36/36/36 33/33/33
f 37/37/37 29/29/29 32/32/32
f 34/34/34 37/37/37 38/38/38
f 32/32/32 38/38/38 37/37/37
f 38/38/38 35/35/35 34/34/34
f 39/39/39 31/31/31 30/30/30
f 30/30/30 40/40/40 39/39/39
f 41/41/41 39/39/39 40/40/40
f 40/40/40 42/42/42 41/41/41
f 43/43/43 44/44/44 45/45/45
f 45/45/45 46/46/46 43/43/43
f 44/44/44 43/43/43 47/47/47
f 47/47/47 48/48/48 44/44/44
f 46/46/46 45/45/45 49/49/49
f 49/49/49 50/50/50 46/46/46
f 51/51/51 43/43/43 46/46/46
f 52/52/52 46/46/46 50/50/50
f 46/46/46 52/52/52 51/51/51
f 53/53/53 45/45/45 44/44/44
f 54/54/54 44/44/44 48/48/48
f 44/44/44 54/54/54 53/53/53
f 43/43/43 51/51/51 55/55/55
f 55/55/55 47/47/47 43/43/43
f 48/48/48 56/56/56 54/54/54
f 45/45/45 53/53/53 57/57/57
f 57/57/57 49/49/49 45/45/45
f 50/50/50 58/58/58 52/52/52
f 59/59/59 60/60/60 61/61/61
f 61/61/61 62/62/62 59/59/59
f 60/60/60 59/59/59 63/63/63
f 63/63/63 64/64/64 60/60/60
f 62/62/62 61/61/61 65/65/65
f 65/65/65 66/66/66 62/62/62
f 67/67/67 59/59/59 62/62/62
f 62/62/62 68/68/68 67/67/67
f 68/68/68 62/62/62 66/66/66
f 69/69/69 61/61/61 60/60/60
f 70/70/70 60/60/60 64/64/64
f 60/60/60 70/70/70 69/69/69
f 71/71/71 63/63/63 59/59/59
f 59/59/59 67/67/67 71/71/71
f 64/64/64 72/72/72 70/70/70
f 73/73/73 65/65/65 61/61/61
f 61/61/61 69/69/69 73/73/73
f 66/66/66 74/74/74 68/68/68
f 75/75/75 76/76/76 77/77/77
f 77/77/77 78/78/78 75/75/75
f 79/79/79 75/75/75 78/78/78
f 78/78/78 80/80/80 79/79/79
f 81/81/81 77/77/77 76/76/76
f 76/76/76 82/82/82 81/81/81
f 76/76/76 75/75/75 83/83/83
f 83/83/83 84/84/84 76/76/76
f 82/82/82 76/76/76 84/84/84
f 78/78/78 77/77/77 85/85/85
f 80/80/80 78/78/78 86/86/86
f 85/85/85 86/86/86 78/78/78
f 87/87/87 83/83/83 75/75/75
f 75/75/75 79/79/79 87/87/87
f 86/86/86 88/88/88 80/80/80
f 77/77/77 81/81/81 89/89/89
f 89/89/89 85/85/85 77/77/77
f 84/84/84 90/90/90 82/82/82
f 91/91/91 92/92/92 93/93/93
f 93/93/93 94/94/94 91/91/91
f 92/92/92 91/91/91 95/95/95
f 95/95/95 96/96/96 92/92/92
f 94/94/94 93/93/93 97/97/97
f 97/97/97 98/98/98 94/94/94
f 99/99/99 91/91/91 94/94/94
f 94/94/94 100/100/100 99/99/99
f 100/100/100 94/94/94 98/98/98
f 101/101/101 93/93/93 92/92/92
f 102/102/102 92/92/92 96/96/96
f 92/92/92 102/102/102 101/101/101
f 91/91/91 99/99/99 103/103/103
f 103/103/103 95/95/95 91/91/91
f 96/96/96 104/104/104 102/102/102
f 105/105/105 97/97/97 93/93/93
f 93/93/93 101/101/101 105/105/105
f 98/98/98 106/106/106 100/100/100
f 107/107/107 108/108/108 109/109/109
f 109/109/109 110/110/110 107/107/107
f 111/111/111 107/107/107 110/110/110
f 110/110/110 112/112/112 111/111/111
f 113/113/113 109/109/109 108/108/108
f 108/108/108 114/114/114 113/113/113
f 108/108/108 107/107/107 115/115/115
f 114/114/114 108/108/108 116/116/116
f 115/115/115 116/116/116 108/108/108
f 110/110/110 109/109/109 117/117/117
f 117/117/117 118/118/118 110/110/110
f 112/112/112 110/110/110 118/118/118
f 107/107/107 111/111/111 119/119/119
f 119/119/119 115/115/115 107/107/107
f 118/118/118 120/120/120 112/112/112
f 109/109/109 113/113/113 121/121/121
f 121/121/121 117/117/117 109/109/109
f 116/116/116 122/122/122 114/114/114
f 123/123/123 124/124/124 125/125/125
f 125/125/125 126/126/126 123/123/123
f 127/127/127 123/123/123 126/126/126
f 126/126/126 128/128/128 127/127/127
f 129/129/129 125/125/125 124/124/124
f 124/124/124 130/130/130 129/129/129
f 124/124/124 123/123/123 131/131/131
f 131/131/131 132/132/132 124/124/124
f 130/130/130 124/124/124 132/132/132
f 126/126/126 125/125/125 133/133/133
f 133/133/133 134/134/134 126/126/126
f 128/128/128 126/126/126 134/134/134
f 123/123/123 127/127/127 135/135/135
f 135/135/135 131/131/131 123/123/123
f 134/134/134 136/136/136 128/128/128
f 125/125/125 129/129/129 137/137/137
f 137/137/137 133/133/133 125/125/125
f 132/132/132 138/138/138 130/130/130
f 139/139/139 140/140/140 141/141/141
f 141/141/141 142/142/142 139/139/139
f 140/140/140 139/139/139 143/143/143
f 143/143/143 144/144/144 140/140/140
f 142/142/142 141/141/141 145/145/145
f 145/145/145 146/146/146 142/142/142
f 147/147/147 139/139/139 142/142/142
f 142/142/142 148/148/148 147/147/147
f 148/148/148 142/142/142 146/146/146
f 149/149/149 141/141/141 140/140/140
f 150/150/150 140/140/140 144/144/144
f 140/140/140 150/150/150 149/149/149
f 151/151/151 143/143/143 139/139/139
f 139/139/139 147/147/147 151/151/151
f 144/144/144 152/152/152 150/150/150
f 153/153/153 145/145/145 141/141/141
f 141/141/141 149/149/149 153/153/153
f 146/146/146 154/154/154 148/148/148
f 155/155/155 156/156/156 157/157/157
f 157/157/157 158/158/158 155/155/155
f 159/159/159 155/155/155 158/158/158
f 158/158/158 160/160/160 159/159/159
f 161/161/161 157/157/157 156/156/156
f 156/156/156 162/162/162 161/161/161
f 156/156/156 155/155/155 163/163/163
f 163/163/163 164/164/164 156/156/156
f 162/162/162 156/156/156 164/164/164
f 158/158/158 157/157/157 165/165/165
f 160/160/160 158/158/158 166/166/166
f 165/165/165 166/166/166 158/158/158
f 167/167/167 163/163/163 155/155/155
f 155/155/155 159/159/159 167/167/167
f 166/166/166 168/168/168 160/160/160
f 157/157/157 161/161/161 169/169/169
f 169/169/169 165/165/165 157/157/157
f 164/164/164 170/170/170 162/162/162
f 171/171/171 172/172/172 173/173/173
f 173/173/173 174/174/174 171/171/171
f 175/175/175 171/171/171 174/174/174
f 174/174/174 176/176/176 175/175/175
f 177/177/177 173/173/173 172/172/172
f 172/172/172 178/178/178 177/177/177
f 172/172/172 171/171/171 179/179/179
f 179/179/179 180/180/180 172/172/172
f 178/178/178 172/172/172 180/180/180
f 174/174/174 173/173/173 181/181/181
f 181/181/181 182/182/182 174/174/174
f 176/176/176 174/174/174 182/182/182
f 171/171/171 175/175/175 183/183/183
f 183/183/183 179/179/179 171/171/171
f 182/182/182 184/184/184 176/176/176
f 173/173/173 177/177/177 185/185/185
f 185/185/185 181/181/181 173/173/173
f 180/180/180 186/186/186 178/178/178
f 187/187/187 188/188/188 189/189/189
f 189/189/189 190/190/190 187/187/187
f 191/191/191 187/187/187 190/190/190
f 190/190/190 192/192/192 191/191/191
f 193/193/193 189/189/189 188/188/188
f 188/188/188 194/194/194 193/193/193
f 188/188/188 187/187/187 195/195/195
f 194/194/194 188/188/188 196/196/196
f 195/195/195 196/196/196 188/188/188
f 190/190/190 189/189/189 197/197/197
f 197/197/197 198/198/198 190/190/190
f 192/192/192 190/190/190 198/198/198
f 187/187/187 191/191/191 199/199/199
f 199/199/199 195/195/195 187/187/187
f 198/198/198 200/200/200 192/192/192
f 189/189/189 193/193/193 201/201/201
f 201/201/201 197/197/197 189/189/189
f 196/196/196 202/202/202 194/194/194
f 203/203/203 204/204/204 205/205/205
f 205/205/205 206/206/206 203/203/203
f 207/207/207 203/203/203 206/206/206
f 206/206/206 208/208/208 207/207/207
f 209/209/209 205/205/205 204/204/204
f 204/204/204 210/210/210 209/209/209
f 204/204/204 203/203/203 211/211/211
f 211/211/211 212/212/212 204/204/204
f 210/210/210 204/204/204 212/212/212
f 206/206/206 205/205/205 213/213/213
f 208/208/208 206/206/206 214/214/214
f 213/213/213 214/214/214 206/206/206
f 215/215/215 211/211/211 203/203/203
f 203/203/203 207/207/207 215/215/215
f 214/214/214 216/216/216 208/208/208
f 205/205/205 209/209/209 217/217/217
f 217/217/217 213/213/213 205/205/205
f 212/212/212 218/218/218 210/210/210
